<svg class="sport-icon" viewBox="0 0 23 34" fill="none" xmlns="http://www.w3.org/2000/svg" >
<g id="Archery">
<g id="Group">
<path id="Vector" d="M10.4574 7.93638C11.5439 7.93638 12.4247 7.05563 12.4247 5.96917C12.4247 4.8827 11.5439 4.00195 10.4574 4.00195C9.37099 4.00195 8.49023 4.8827 8.49023 5.96917C8.49023 7.05563 9.37099 7.93638 10.4574 7.93638Z" />
<path id="Vector_2" d="M12.4247 16.2305V33.3911H11.2181C11.2181 33.3911 9.45093 26.6141 9.45093 19.9911L12.4247 16.2305Z"  fill-opacity="0.6"/>
<path id="Union"  fill-rule="evenodd" clip-rule="evenodd" d="M0.924966 9.34116C0.923719 9.33949 0.923096 9.33863 0.923096 9.33863V9.34191L0.924966 9.34116ZM5.70821 8.59113L4.85752 7.78125L0.924966 9.34116C0.973522 9.40642 1.96786 10.7091 3.96572 10.7091H6.6371L6.91313 11.1518C7.1328 11.5026 7.32952 11.8698 7.50657 12.2403L9.26395 9.33211L7.70001 8.59113H5.70821Z"  fill-opacity="0.6"/>
<path id="Union_2"  fill-rule="evenodd" clip-rule="evenodd" d="M18.2048 0.292969H18.9327C21.1082 2.64335 22.2742 5.59583 22.4309 8.59135H22.8835L22.4491 9.31215C22.4436 12.5361 21.2715 15.758 18.9327 18.2831H18.2048C20.6284 15.8596 21.8679 12.6943 21.9234 9.51189C20.6833 9.92187 17.2329 10.8668 11.772 10.8668L8.9917 8.59135H21.9064C21.7421 5.56997 20.5083 2.59639 18.2048 0.292969Z"  fill-opacity="0.6"/>
<path id="Vector_3" d="M8.83129 8.60445C8.83129 8.60445 7.41162 8.01101 4.67392 7.56183C3.17556 7.31593 1.68375 8.0274 0.923096 9.33888H9.27392L8.83129 8.60445Z" />
<path id="Subtract" fill-rule="evenodd" clip-rule="evenodd" d="M5.78253 9.33868L5.31641 8.59117L5.31313 8.58789H10.2115C11.4312 8.58789 12.4213 9.57806 12.4213 10.7977V16.2305C12.4213 17.2436 12.1656 18.2404 11.6771 19.1256L3.40821 33.3912H2.27051C2.27051 33.3912 4.11313 24.3354 8.5492 17.1813V16.8666C8.5492 15.2614 8.1909 13.681 7.50723 12.2391L9.25991 9.33868H5.78253ZM7.02493 11.3352C6.99926 11.2921 6.97327 11.2491 6.94694 11.2064C6.97325 11.2492 6.99924 11.2921 7.02493 11.3352Z" />
</g>
</g>
</svg>
