<svg class="sport-icon" width="26" height="22" viewBox="0 0 26 22" fill="none" xmlns="http://www.w3.org/2000/svg">
<g id="Artwork" clip-path="url(#clip0_6267_49102)">
<g id="Group">
<path id="Vector" d="M9.52297 14.0469C10.805 14.0469 11.8443 13.0076 11.8443 11.7256C11.8443 10.4436 10.805 9.4043 9.52297 9.4043C8.24095 9.4043 7.20166 10.4436 7.20166 11.7256C7.20166 13.0076 8.24095 14.0469 9.52297 14.0469Z"  fill-opacity="0.6"/>
</g>
<path id="Union" fill-rule="evenodd" clip-rule="evenodd" d="M12.5785 0.736328L13.6376 1.28387C13.6376 1.28387 15.2349 8.92978 15.5953 15.669C15.6081 15.7709 15.6147 15.8754 15.6147 15.9822V20.6248C15.5724 20.6827 15.5287 20.736 15.4844 20.7899C15.4634 20.8154 15.4423 20.8411 15.4212 20.8675C14.3393 20.8642 13.2737 20.5789 12.3393 20.038L12.1852 19.9494L12.0311 20.038C11.8934 20.1199 11.7491 20.1921 11.6049 20.2609C11.3917 19.3363 10.8114 18.5265 9.96879 18.0412C7.2442 19.3199 4.6901 20.2511 2.83436 20.8576C2.69993 20.8675 2.56879 20.8707 2.43436 20.8707C1.75567 20.8707 1.08026 20.756 0.440918 20.5396L7.36551 16.5396L11.6901 14.0412L11.9721 13.8806C12.1735 13.7644 12.3812 13.6807 12.5904 13.6268L12.5785 0.736328Z"  fill-opacity="0.6"/>
<g id="Group_2">
<path id="Vector_2" d="M22.4113 1.28387L21.3523 0.736328L21.3654 14.9527L24.3884 16.0544C24.0703 9.22485 22.4113 1.28387 22.4113 1.28387Z"  fill-opacity="0.6"/>
<path id="Vector_3" d="M18.2967 14.0469C19.5787 14.0469 20.618 13.0076 20.618 11.7256C20.618 10.4436 19.5787 9.4043 18.2967 9.4043C17.0146 9.4043 15.9753 10.4436 15.9753 11.7256C15.9753 13.0076 17.0146 14.0469 18.2967 14.0469Z" />
</g>
<path id="Vector_4" d="M22.9097 20.6446C21.8244 20.6446 20.7523 20.3561 19.8146 19.8151L19.6605 19.7266L19.5064 19.8151C18.5687 20.3593 17.4966 20.6446 16.4113 20.6446C15.3261 20.6446 14.254 20.3561 13.3163 19.8151L13.1622 19.7266L13.0081 19.8151C12.0704 20.3593 10.9982 20.6446 9.91297 20.6446C8.82773 20.6446 7.7556 20.3561 6.81789 19.8151L6.66379 19.7266L6.5097 19.8151C5.57199 20.3593 4.49986 20.6446 3.41461 20.6446C2.32937 20.6446 1.25724 20.3561 0.319532 19.8151L0.00805664 20.3495C1.04084 20.9462 2.21789 21.2643 3.41461 21.2643C4.61134 21.2643 5.67035 20.979 6.66379 20.438C7.65724 20.979 8.77855 21.2643 9.91297 21.2643C11.0474 21.2643 12.1687 20.979 13.1622 20.438C14.1556 20.979 15.2769 21.2643 16.4113 21.2643C17.5458 21.2643 18.6671 20.979 19.6605 20.438C20.654 20.979 21.7753 21.2643 22.9097 21.2643C23.7818 21.2643 24.6441 21.0938 25.4507 20.7725L26.0048 19.8184C25.0671 20.3594 23.9982 20.6479 22.9097 20.6479V20.6446Z" />
<path id="Subtract" fill-rule="evenodd" clip-rule="evenodd" d="M20.7459 13.8837C22.3656 12.9493 24.3885 14.1165 24.3885 15.9853H24.3852V20.7099C23.8065 20.9587 23.1902 20.9586 22.5613 20.9585C22.4027 20.9584 22.2433 20.9584 22.0836 20.9624L20.3983 20.3788C20.3801 20.2856 20.3582 20.1935 20.3328 20.1026" />
<path id="Vector_5" d="M18.7424 18.0444C19.5359 18.5002 20.0933 19.2477 20.3326 20.1034V17.2969L18.7424 18.0411V18.0444Z"  fill-opacity="0.6"/>
</g>
<defs>
<clipPath id="clip0_6267_49102">
<rect width="26.0033" height="20.5279" fill="white" transform="translate(-0.00170898 0.736328)"/>
</clipPath>
</defs>
</svg>
