<svg class="sport-icon" width="18" height="34" viewBox="0 0 18 34" fill="none" xmlns="http://www.w3.org/2000/svg">
<g id="Badminton">
<g id="Group">
<path id="Vector" d="M9.76235 23.1036L11.6508 24.1856C11.6508 24.1856 10.0312 25.0282 8.77874 26.5692L8.24756 28.3495L14.1426 24.9528C14.6738 24.6446 14.8082 23.9364 14.4214 23.461C13.4541 22.2577 11.6312 20.1757 9.8115 19.0938L9.75899 23.1069L9.76235 23.1036Z"  fill-opacity="0.6"/>
<path id="Vector_2" d="M2.73926 14.3947L7.49992 14.5455C7.49992 14.5455 13.5555 11.0636 17.7096 6.85046V5.73242L2.73926 14.3947Z"  fill-opacity="0.6"/>
<path id="Vector_3" d="M5.65398 11.6336C6.74044 11.6336 7.62119 10.7529 7.62119 9.66643C7.62119 8.57997 6.74044 7.69922 5.65398 7.69922C4.56752 7.69922 3.68677 8.57997 3.68677 9.66643C3.68677 10.7529 4.56752 11.6336 5.65398 11.6336Z" />
<path id="Vector_4" d="M17.7163 0.296875L16.3951 1.06081C16.159 1.19851 16.159 1.5395 16.3951 1.6772L17.7097 2.44113L17.7163 0.296875Z" />
<path id="Vector_5" d="M7.66716 11.5391L2.60825 14.4604C2.60825 11.5489 1.63441 9.30958 1.63441 9.30958L1.20168 9.26367L0.824503 9.91941V16.9653C0.824503 16.9653 2.9065 16.9915 5.28355 15.7325L7.14911 18.9555C7.14911 18.9555 6.17206 20.6112 6.17206 27.1686C3.2278 28.762 0.240967 32.0079 0.240967 32.0079V33.4243L7.75249 29.0997C8.11643 28.8899 8.39508 28.5555 8.53278 28.1555C9.04426 26.6899 10.2507 22.9489 10.2507 20.3161V13.0276C10.2507 11.703 8.81807 10.8735 7.67053 11.5325L7.66716 11.5391Z" />
<path id="Vector_6" d="M6.28681 0.982641C5.67042 0.628543 4.72945 1.1892 4.09339 2.29083C3.67044 3.02198 3.52286 3.74985 3.65073 4.26133C3.73598 4.59903 3.6901 4.95969 3.51305 5.26133L0.824463 9.92034V10.3302L1.09998 10.4908L3.96883 5.52362C4.1426 5.22198 4.43103 5.00231 4.76545 4.90395C5.27365 4.75969 5.82784 4.2646 6.25079 3.53673C6.88685 2.43509 6.9032 1.33674 6.28681 0.982641ZM5.79837 3.27444C5.2705 4.1892 4.58189 4.54001 4.3196 4.38919C4.0573 4.23837 4.01794 3.46788 4.54581 2.55313C5.07368 1.63837 5.76228 1.28755 6.02458 1.43837C6.28687 1.58919 6.32624 2.35969 5.79837 3.27444Z" />
</g>
</g>
</svg>
