<svg class="sport-icon" width="22" height="33" viewBox="0 0 22 33" fill="none" xmlns="http://www.w3.org/2000/svg">
<g id="Basketball">
<g id="Group">
<path id="Vector" d="M14.5195 11.4004L15.772 12.0988C16.8507 12.6988 17.5162 13.8365 17.5162 15.0692V18.1283C17.5162 18.1283 20.1359 19.7217 21.9196 22.2168L21.1753 22.6496L16.513 19.9611L14.8572 16.9315L14.5195 11.4004Z"  fill-opacity="0.6"/>
<path id="Vector_2" d="M15.4704 10.8934C16.5568 10.8934 17.4376 10.0127 17.4376 8.9262C17.4376 7.83974 16.5568 6.95898 15.4704 6.95898C14.3839 6.95898 13.5032 7.83974 13.5032 8.9262C13.5032 10.0127 14.3839 10.8934 15.4704 10.8934Z" />
<path id="Vector_3" d="M10.6604 27.0281L1.28345 32.4346V31.0904C1.28345 31.0904 3.74896 28.1887 6.06044 26.8379L10.6604 27.0281Z"  fill-opacity="0.6"/>
<path id="Vector_4" d="M5.35898 3.27572L4.79834 2.50195C4.79834 3.80031 4.93277 5.11178 5.21474 6.01014L7.78518 7.51179L5.35898 3.27572Z"  fill-opacity="0.6"/>
<path id="Vector_5" d="M15.2475 11.815L7.78843 7.51336L5.21799 6.01172C5.97209 8.42156 6.85401 9.75271 10.0081 11.4675L12.9425 16.5494C12.9425 16.5494 10.1392 17.6314 10.1392 21.1757V24.3068C5.38513 24.3068 0.991719 25.8707 0.991719 25.8707L0.250732 27.1363H10.1131C10.6967 27.1363 11.2343 26.8281 11.5327 26.3265L15.4081 19.7429C16.0606 18.6314 16.4015 17.3658 16.395 16.0773L16.3819 13.8314C16.3786 13.0117 15.9556 12.2314 15.2475 11.8183V11.815Z" />
<path id="Vector_6" d="M7.26053 4.96491C8.61861 4.96491 9.71955 3.86397 9.71955 2.50589C9.71955 1.14781 8.61861 0.046875 7.26053 0.046875C5.90245 0.046875 4.80151 1.14781 4.80151 2.50589C4.80151 3.86397 5.90245 4.96491 7.26053 4.96491Z" />
</g>
</g>
</svg>
