<svg class="sport-icon" width="25" height="31" viewBox="0 0 25 31" fill="none" xmlns="http://www.w3.org/2000/svg">
<g id="Icons" clip-path="url(#clip0_6267_49154)">
<path id="Vector" d="M17.1155 11.597L14.3184 6.63737C14.0305 6.12711 13.6079 5.70592 13.0963 5.42007L11.5517 4.5625L10.5657 6.51515L11.7201 7.3955C13.3966 10.9777 16.4499 13.4572 16.4499 13.4572H22.4425L23.5217 12.8834C21.0546 11.4879 17.1155 11.5977 17.1155 11.5977V11.597Z"  fill-opacity="0.6"/>
<path id="Vector_2" d="M12.6994 4.14398C13.7672 4.14398 14.6328 3.27841 14.6328 2.21066C14.6328 1.14292 13.7672 0.277344 12.6994 0.277344C11.6317 0.277344 10.7661 1.14292 10.7661 2.21066C10.7661 3.27841 11.6317 4.14398 12.6994 4.14398Z" />
<path id="Vector_3" d="M22.4425 17.5847C23.8153 17.5847 24.9282 16.4718 24.9282 15.099C24.9282 13.7262 23.8153 12.6133 22.4425 12.6133C21.0697 12.6133 19.9568 13.7262 19.9568 15.099C19.9568 16.4718 21.0697 17.5847 22.4425 17.5847Z" />
<path id="Vector_4" d="M5.57373 14.5831C9.18628 21.5327 17.3911 30.4418 17.3911 30.4418H19.0138L8.35978 11.9199L5.57373 14.5831Z"  fill-opacity="0.6"/>
<path id="Vector_5" d="M12.6752 7.67445C13.345 6.71055 13.0308 5.37725 12.0041 4.809L9.91125 3.64969C9.36577 3.35486 8.68497 3.5551 8.3853 4.09781L4.25283 11.8732C3.77641 12.7363 3.7916 13.7872 4.2915 14.6372L7.36479 19.8564C3.33105 22.358 0.767334 25.2359 0.767334 25.2359V26.8889L9.50663 22.0211C10.708 21.352 11.016 20.4675 10.6563 19.1204C9.76072 15.7682 8.2914 13.0125 8.2914 13.0125C8.2914 13.0125 10.2123 11.2173 12.6759 7.67376L12.6752 7.67445Z" />
<path id="Vector_6" d="M9.7433 3.55966C8.903 3.09014 7.87903 3.09221 7.04079 3.56519L1.5481 6.66195V13.3782L2.6273 12.7581C2.6273 12.7581 3.24735 10.4734 3.47658 7.71837C3.47658 7.71837 6.25504 7.03757 9.07907 5.38389L10.565 6.51695L11.551 4.5643L9.74261 3.56035L9.7433 3.55966Z" />
<path id="Vector_7" d="M19.0137 30.4415L14.6258 22.8125L13.0833 25.4211C15.473 28.3584 17.3918 30.4415 17.3918 30.4415H19.0144H19.0137Z" />
</g>
<defs>
<clipPath id="clip0_6267_49154">
<rect width="24.161" height="30.1639" fill="white" transform="translate(0.767334 0.277344)"/>
</clipPath>
</defs>
</svg>
