<svg class="sport-icon" width="30" height="26" viewBox="0 0 30 26" fill="none"
  xmlns="http://www.w3.org/2000/svg">
  <path id="Vector" d="M12.8783 11.6543L10.5704 20.04C10.3744 20.7531 9.81583 21.3102 9.10274 21.5049L0.716309 23.7671L1.1547 22.1751C1.1547 22.1751 4.59934 19.9894 8.06014 19.0354C8.06014 19.0354 7.65898 16.5019 8.80766 12.3273L12.8783 11.6543Z"  fill-opacity="0.6"/>
  <path id="Vector_2" d="M15.7566 5.34836L16.6312 8.8211C16.6312 8.8211 21.1536 12.2721 25.2186 13.0835L26.4804 12.3739L15.7559 5.34766L15.7566 5.34836Z"  fill-opacity="0.6"/>
  <path id="Vector_3" d="M16.9686 3.93041C18.0551 3.93041 18.9358 3.04969 18.9358 1.96325C18.9358 0.876821 18.0551 -0.00390625 16.9686 -0.00390625C15.8822 -0.00390625 15.0015 0.876821 15.0015 1.96325C15.0015 3.04969 15.8822 3.93041 16.9686 3.93041Z" />
  <path id="Vector_4" d="M27.3165 11.1824C28.403 11.1824 29.2837 10.3016 29.2837 9.21521C29.2837 8.12877 28.403 7.24805 27.3165 7.24805C26.2301 7.24805 25.3494 8.12877 25.3494 9.21521C25.3494 10.3016 26.2301 11.1824 27.3165 11.1824Z" />
  <path id="Vector_5" d="M13.361 12.2212C14.1858 10.8224 15.3836 9.68009 16.8204 8.92343L18.111 8.24336C18.111 8.24336 21.9814 11.8657 25.7077 12.8114L26.9519 12.087L17.0122 4.66032C15.4005 3.73224 13.3413 4.28796 12.416 5.90103C12.416 5.90103 9.02479 11.8131 9.02408 11.8131C8.35876 12.973 8.44447 14.4547 9.23977 15.5303C9.47512 15.8492 9.76317 16.1415 10.1081 16.341C10.4552 16.542 10.8739 16.5883 11.2673 16.5982C12.2116 16.6214 13.1502 16.4738 14.0677 16.2645C14.5342 16.1577 14.9972 16.0347 15.4588 15.9083C15.6597 15.8535 15.8312 15.7579 16.0251 15.6827C16.0841 15.6603 16.677 15.4741 16.677 15.4551L15.1335 23.1938H16.377L20.2123 15.2942C20.3472 15.0167 20.4413 14.7209 20.4856 14.4153C20.702 12.9294 20.2299 11.7639 18.751 11.8721C17.2004 11.9859 15.2291 12.3175 12.9141 13.0861L12.8762 13.0404L13.3589 12.2212H13.361Z" />
  <path id="Vector_6" d="M21.3503 24.4597C20.7602 24.4267 20.4159 24.3178 20.0555 24.204C19.5974 24.0586 19.1239 23.9082 18.1895 23.9082C17.2551 23.9082 16.7816 24.0586 16.3235 24.204C15.8921 24.341 15.4846 24.4702 14.6486 24.4702C13.8126 24.4702 13.4051 24.341 12.9744 24.204C12.5163 24.0586 12.0428 23.9082 11.1084 23.9082C10.174 23.9082 9.70049 24.0586 9.24243 24.204C8.81106 24.341 8.40427 24.4702 7.56823 24.4702C6.73219 24.4702 6.32471 24.341 5.89404 24.204C5.63128 24.1204 5.3629 24.0354 5.00671 23.9785L4.32275 24.2583C4.97849 24.4223 5.27298 24.6698 5.70294 24.8068C6.16101 24.9522 6.63453 25.1025 7.56893 25.1025C8.50334 25.1025 8.97686 24.9522 9.43493 24.8068C9.8663 24.6698 10.2731 24.5405 11.1091 24.5405C11.9452 24.5405 12.3526 24.6698 12.7833 24.8068C13.2414 24.9522 13.7149 25.1025 14.6493 25.1025C15.5837 25.1025 16.0572 24.9522 16.5153 24.8068C16.9467 24.6698 17.3542 24.5405 18.1902 24.5405C19.0262 24.5405 19.4337 24.6698 19.8651 24.8068C20.3218 24.9515 20.7946 25.1018 21.7227 25.1025L21.351 24.4597H21.3503Z"  fill-opacity="0.6"/>
<defs>
  <clipPath id="clip0_6267_49165">
    <rect width="28.5674" height="25.1066" fill="white" transform="translate(0.716309 -0.00390625)"/>
  </clipPath>
</defs>
</svg>
