<svg class="sport-icon" width="22" height="28" viewBox="0 0 22 28" fill="none" xmlns="http://www.w3.org/2000/svg">
<g id="Boxing">
<g id="Group">
<path id="Vector" d="M2.6936 11.1655C3.42475 12.4311 4.38208 14.1524 5.18208 15.4967C5.18208 15.4967 6.14281 17.2999 9.60182 20.0606L10.8674 17.8737L7.6182 12.2114L7.97881 11.5655L4.17886 8.50977L2.6936 11.1622V11.1655Z"  fill-opacity="0.6"/>
<path id="Vector_2" d="M14.9657 27.3917H16.3394L10.8673 17.877L9.60181 20.0638C9.60181 20.0638 10.7132 23.7261 14.9657 27.3917Z" />
<path id="Vector_3" d="M2.37556 11.7516C1.29688 13.686 1.32967 16.0499 2.4641 17.9516L3.28049 19.3221C3.28049 19.3221 1.12307 22.2434 0.290283 27.3909H1.4247L5.93946 19.627C5.93946 19.627 5.88042 17.7647 5.18206 15.4991C4.38206 14.1549 3.42474 12.4335 2.69359 11.168L2.37228 11.7516H2.37556Z" />
<path id="Vector_4" d="M6.89038 9.52887C7.10022 10.3223 7.21169 10.9289 7.21169 10.9289C7.733 10.683 8.0379 10.7354 8.4215 10.601L10.0969 7.67969L6.89038 9.52559V9.52887Z"  fill-opacity="0.6"/>
<path id="Vector_5" d="M9.74602 4.83677C10.8325 4.83677 11.7132 3.95602 11.7132 2.86956C11.7132 1.7831 10.8325 0.902344 9.74602 0.902344C8.65956 0.902344 7.77881 1.7831 7.77881 2.86956C7.77881 3.95602 8.65956 4.83677 9.74602 4.83677Z" />
<path id="Vector_6" d="M20.7789 5.47921H18.5789L17.7461 6.89561L19.0609 7.66937C19.9461 8.19068 21.0838 7.88577 21.592 6.99396L21.6281 6.93167C21.9986 6.28249 21.5297 5.47266 20.7822 5.47266L20.7789 5.47921Z"  fill-opacity="0.6"/>
<path id="Vector_7" d="M10.0969 7.6818H10.1001C10.1001 7.6818 14.3854 7.55065 17.7428 6.89491L18.5756 5.47852H5.81167C3.86085 5.47852 2.63462 7.58671 3.60183 9.2818L6.31331 13.8949L11.1395 11.0982L11.1166 10.0785L9.71655 10.2851C9.71655 10.2851 8.57229 10.3146 7.33294 10.8687C7.25425 10.5802 7.11 10.0752 6.92967 9.50146L10.0937 7.6818H10.0969Z" />
<path id="Vector_8" d="M13.0575 10.0003L11.1428 11.0987L9.72314 10.2888L10.474 8.96095C10.9789 8.06915 12.1166 7.76096 13.0018 8.27899L13.0608 8.31505C13.7067 8.6921 13.7034 9.62653 13.0543 10.0003H13.0575Z"  fill-opacity="0.6"/>
</g>
</g>
</svg>
