<svg class="sport-icon" width="28" height="33" viewBox="0 0 28 33" fill="none" xmlns="http://www.w3.org/2000/svg">
<g id="Breaking">
<g id="Group">
<path id="Vector" d="M17.4018 22.5106C18.4882 22.5106 19.369 21.6298 19.369 20.5434C19.369 19.4569 18.4882 18.5762 17.4018 18.5762C16.3153 18.5762 15.4346 19.4569 15.4346 20.5434C15.4346 21.6298 16.3153 22.5106 17.4018 22.5106Z" />
<path id="Vector_2" d="M13.6018 16.7012C13.3558 16.9372 13.0641 17.3864 12.8444 17.7208L11.1362 16.7012L10.405 17.97L14.769 25.5274V20.4815C14.769 19.5241 15.0214 18.5831 15.5001 17.7536L16.1067 16.7012H13.6018Z"  fill-opacity="0.6"/>
<path id="Vector_3" d="M15.9985 13.4907L20.451 16.0645L21.1887 15.6382C21.1887 15.6382 18.4707 11.589 15.9985 13.494V13.4907Z"  fill-opacity="0.6"/>
<path id="Subtract" fill-rule="evenodd" clip-rule="evenodd" d="M27.323 16.7007H13.841H11.1361L10.405 17.9695L14.7689 25.5269V32.4056H14.1722C14.1722 32.4056 12.5657 28.8548 12.2771 23.4318C11.8713 23.1983 11.5619 23.0178 11.2815 22.8541C10.991 22.6846 10.7316 22.5332 10.428 22.3597C8.2837 21.1335 6.52304 19.3368 5.34271 17.1663C2.03123 11.4318 0.260742 2.822 0.260742 2.822L0.942696 1.58594L8.40499 14.5072C9.40171 13.7991 10.9722 13.3827 13.3886 13.3827C14.2641 13.3827 15.1411 13.4218 16.004 13.4899C16.003 13.4907 16.0019 13.4915 16.0009 13.4923L15.9984 13.4909V13.4941C15.9993 13.4935 16.0001 13.4929 16.0009 13.4923L20.4509 16.0646L21.1886 15.6384C21.1886 15.6384 20.5575 14.6982 19.6269 13.9371C23.6582 14.6012 26.723 15.6253 26.723 15.6253L27.323 16.7007Z" />
</g>
</g>
</svg>
