<svg class="sport-icon" width="34" height="27" viewBox="0 0 34 27" fill="none" xmlns="http://www.w3.org/2000/svg">
<g id="Canoe">
<g id="Group">
<path id="Vector" d="M31.7263 25.473L32.359 24.4238H1.91314L2.50658 25.332C2.50658 25.332 1.84428 25.4665 1.01478 25.5156L0.690186 26.0828C2.48691 26.0435 4.26068 25.673 5.84756 25.0074C7.52953 25.7123 9.42461 26.0861 11.3328 26.0861C13.241 26.0861 15.1328 25.7123 16.8181 25.0074C18.5 25.7123 20.3951 26.0861 22.3033 26.0861C24.2115 26.0861 26.1033 25.7123 27.7885 25.0074C29.4705 25.7123 31.3656 26.0861 33.2738 26.0861C33.3623 26.0861 33.4476 26.0861 33.5328 26.0828L33.2246 25.5451C32.3918 25.5353 31.7263 25.473 31.7263 25.473Z" />
<path id="Vector_2" d="M14.6772 16.5848C15.7636 16.5848 16.6444 15.7041 16.6444 14.6176C16.6444 13.5311 15.7636 12.6504 14.6772 12.6504C13.5907 12.6504 12.71 13.5311 12.71 14.6176C12.71 15.7041 13.5907 16.5848 14.6772 16.5848Z" />
<path id="Vector_3" d="M22.231 17.9911L18.7687 19.9943L12.4114 16.332C13.7163 17.1091 13.7097 19.0107 12.3884 19.7747L10.0376 21.1353L11.0081 21.6796L13.3064 20.3714C15.8081 21.4763 18.6278 22.2599 18.6278 22.2599C20.6933 21.214 22.6474 18.7681 22.6474 18.7681L22.2343 17.9878L22.231 17.9911Z"  fill-opacity="0.6"/>
<path id="Subtract" fill-rule="evenodd" clip-rule="evenodd" d="M5.55569 19.582C4.43111 21.4672 5.08029 23.9066 6.99176 24.9852H6.99504L15.9229 24.5033L11.0082 21.6836L13.3065 20.3754C15.8082 21.4803 18.6278 22.2639 18.6278 22.2639C20.6934 21.2148 22.6475 18.7721 22.6475 18.7721L22.6465 18.7702C22.5953 18.8339 20.6658 21.2287 18.6278 22.2607C18.6278 22.2607 15.8081 21.4771 13.3065 20.3721L11.0081 21.6803L10.0377 21.1361L12.3885 19.7754C13.7098 19.0115 13.7163 17.1098 12.4114 16.3328L18.7688 19.9951L18.7704 19.9941L10.7459 15.3721C12.1426 13.3098 12.3754 11.4771 12.3754 11.4771C14.5852 10.1689 16.2409 8.2246 16.2409 8.2246L15.7295 7.4082L10.9983 10.1557L5.55569 19.582Z" />
<path id="Vector_4" d="M14.1086 3.67444L13.6536 3.93555L25.8831 25.2463L26.338 24.9852L14.1086 3.67444Z" />
<path id="Vector_5" d="M12.3819 0.742661L11.6082 2.09348C11.5032 2.29676 11.5065 2.53938 11.6213 2.73938L12.936 5.07381C13.0606 5.29676 13.2442 5.48036 13.4672 5.60495L15.5393 6.76561V5.29348C15.5393 4.87381 15.4278 4.4607 15.218 4.09676L13.2803 0.722989C13.077 0.375449 12.5721 0.385287 12.3852 0.745943L12.3819 0.742661Z" />
</g>
</g>
</svg>
