<svg class="sport-icon" width="32" height="16" viewBox="0 0 32 16" fill="none"
  xmlns="http://www.w3.org/2000/svg">
  <g id="Rings">
    <mask id="mask0_7213_11278" style="mask-type:luminance" maskUnits="userSpaceOnUse" x="0" y="0" width="32" height="16">
      <path id="Clip 33" fill-rule="evenodd" clip-rule="evenodd" d="M0.000976562 0.869141H31.9313V15.5267H0.000976562V0.869141Z" fill="white"/>
    </mask>
    <g mask="url(#mask0_7213_11278)">
      <path id="Fill 32" fill-rule="evenodd" clip-rule="evenodd" d="M26.8897 10.0825C26.7408 10.0825 26.5938 10.0745 26.4489 10.0595C26.2624 7.92708 24.7409 6.17661 22.7213 5.64367V5.64283C22.715 5.64126 22.7085 5.64001 22.7023 5.63833C22.7005 5.63791 22.6988 5.63729 22.6971 5.63687C22.8307 3.44413 24.6563 1.70683 26.8897 1.70683C29.2101 1.70683 31.091 3.58175 31.091 5.89466C31.091 8.20746 29.2101 10.0825 26.8897 10.0825ZM22.7353 6.52152C24.2227 7.00667 25.3445 8.29604 25.5822 9.87458C24.0949 9.38943 22.9731 8.10006 22.7353 6.52152ZM21.4279 14.6893C19.1944 14.6893 17.3689 12.9519 17.2351 10.7592C19.267 10.2341 20.7999 8.47759 20.9872 6.33662C21.1321 6.32156 21.279 6.31361 21.4279 6.31361C21.5696 6.31361 21.7096 6.32083 21.8477 6.33453C21.8548 6.33515 21.8616 6.33641 21.8687 6.33714C22.0562 8.4778 23.589 10.2341 25.6205 10.7592C25.4868 12.9519 23.6613 14.6893 21.4279 14.6893ZM20.1205 6.52141C19.8828 8.09995 18.761 9.38933 17.2738 9.87458C17.2747 9.8681 17.2754 9.86151 17.2765 9.85503C17.5205 8.28527 18.6392 7.00457 20.1205 6.52141ZM16.4083 10.0285C16.4073 10.0388 16.407 10.0492 16.4061 10.0596C16.2615 10.0745 16.1148 10.0825 15.9661 10.0825C15.8173 10.0825 15.6703 10.0745 15.5255 10.0595C15.3399 7.939 13.8341 6.19648 11.8314 5.65308V5.65193C11.8204 5.6489 11.8091 5.6466 11.798 5.64367C11.7898 5.64147 11.7817 5.63896 11.7735 5.63687C11.9072 3.44413 13.7328 1.70683 15.9661 1.70683C18.1996 1.70683 20.0251 3.44413 20.1589 5.63676C18.1369 6.15946 16.6086 7.90146 16.4091 10.0283L16.4083 10.0285ZM11.8155 6.52277C13.3009 7.00897 14.4211 8.2974 14.6587 9.87458C13.1714 9.38943 12.0497 8.10016 11.8119 6.52172C11.8131 6.52214 11.8143 6.52246 11.8155 6.52277ZM10.5043 14.6893C8.27408 14.6893 6.45071 12.9568 6.31243 10.7685C6.31222 10.7654 6.31222 10.7623 6.31201 10.7591C8.34353 10.2339 9.87639 8.47749 10.0637 6.33662C10.2086 6.32156 10.3554 6.31361 10.5043 6.31361C10.6438 6.31361 10.7814 6.32124 10.9175 6.33442C10.9267 6.33536 10.9358 6.33683 10.9452 6.33777C11.133 8.47822 12.6657 10.2341 14.6971 10.7592C14.5633 12.9519 12.7378 14.6893 10.5043 14.6893ZM9.19694 6.52141C8.9593 8.09985 7.83762 9.38912 6.35051 9.87448C6.35198 9.86496 6.35303 9.85534 6.3546 9.84582C6.60158 8.28035 7.71864 7.00363 9.19694 6.52141ZM5.48746 10.001C5.48557 10.0204 5.48483 10.04 5.48315 10.0595C5.33826 10.0745 5.19138 10.0825 5.0426 10.0825C2.72224 10.0825 0.841265 8.20746 0.841265 5.89466C0.841265 3.58175 2.72224 1.70683 5.0426 1.70683C7.2761 1.70683 9.10157 3.44413 9.23523 5.63676C7.22196 6.15716 5.6975 7.8864 5.48777 10.001H5.48746ZM26.8897 0.869141C24.2403 0.869141 22.0699 2.90669 21.8654 5.49516C21.8569 5.49443 21.8487 5.49328 21.8402 5.49255L21.84 5.49412C21.7039 5.48314 21.5668 5.47602 21.4279 5.47602C21.2803 5.47602 21.1347 5.48366 20.9905 5.4961C20.7865 2.9071 18.6158 0.869141 15.9661 0.869141C13.3164 0.869141 11.1458 2.9071 10.9417 5.4961C10.9133 5.49359 10.8853 5.49004 10.8566 5.48805C10.7403 5.4801 10.6228 5.47602 10.5043 5.47602C10.3568 5.47602 10.2113 5.48366 10.067 5.4961C9.86296 2.9071 7.69231 0.869141 5.0426 0.869141C2.25818 0.869141 0.000976562 3.11919 0.000976562 5.89466C0.000976562 8.67013 2.25818 10.9201 5.0426 10.9201C5.1898 10.9201 5.33522 10.9124 5.47927 10.9001C5.48064 10.9174 5.48116 10.9348 5.48273 10.952L5.48389 10.9519C5.7125 13.5161 7.87235 15.5269 10.5043 15.5269C13.154 15.5269 15.3247 13.4889 15.5287 10.9C15.673 10.9124 15.8186 10.9201 15.9661 10.9201C16.1131 10.9201 16.2583 10.9124 16.4022 10.9001C16.4027 10.9066 16.4029 10.9132 16.4034 10.9196L16.4049 10.9198C16.6185 13.4992 18.785 15.5269 21.4279 15.5269C24.0775 15.5269 26.2483 13.4889 26.4523 10.9C26.5965 10.9124 26.7422 10.9201 26.8897 10.9201C29.6741 10.9201 31.9313 8.67013 31.9313 5.89466C31.9313 3.11919 29.6741 0.869141 26.8897 0.869141Z" />
    </g>
  </g>
</svg>
