<svg class="sport-icon" width="30" height="27" viewBox="0 0 30 27" fill="none" xmlns="http://www.w3.org/2000/svg">
<g id="Cycling Road">
<g id="Group">
<path id="Vector" d="M20.5787 10.5111L14.7787 7.14062C14.2049 7.56685 12.323 9.04227 12.9329 9.58325C13.6509 10.216 18.1426 12.3242 18.1426 12.3242C17.0311 14.2226 15.8737 18.039 15.8737 18.039L16.6574 19.3898L20.9788 12.0095C21.2771 11.4849 21.0967 10.816 20.5721 10.5144L20.5787 10.5111Z"  fill-opacity="0.6"/>
<path id="Vector_2" d="M11.654 21.1269H6.55245C6.18196 21.1269 5.85075 20.9367 5.66714 20.6187C5.48026 20.3006 5.47697 19.917 5.66058 19.5957L11.5425 9.41211L11.9983 9.67113L6.11636 19.8547C6.02784 20.0121 6.02776 20.199 6.11956 20.3531C6.21137 20.5105 6.37213 20.6023 6.55245 20.6023H11.654V21.1269Z"  fill-opacity="0.6"/>
<path id="Vector_3" d="M8.90308 8.33398L9.3326 9.07497C9.87031 10.0061 11.0636 10.3274 11.9948 9.78972L13.3424 9.01267C13.6539 8.83234 13.5259 8.35694 13.1686 8.35366L8.90308 8.33398Z"  fill-opacity="0.6"/>
<path id="Vector_4" d="M23.772 26.1035C20.5917 26.1035 18.0015 23.5133 18.0015 20.333C18.0015 17.1527 20.5917 14.5625 23.772 14.5625C26.9523 14.5625 29.5424 17.1527 29.5424 20.333C29.5424 23.5133 26.9523 26.1035 23.772 26.1035ZM23.772 15.0871C20.8802 15.0871 18.5261 17.4412 18.5261 20.333C18.5261 23.2248 20.8802 25.5789 23.772 25.5789C26.6638 25.5789 29.0179 23.2248 29.0179 20.333C29.0179 17.4412 26.6638 15.0871 23.772 15.0871Z" />
<path id="Vector_5" d="M6.27687 26.1035C3.09654 26.1035 0.506348 23.5133 0.506348 20.333C0.506348 17.1527 3.09654 14.5625 6.27687 14.5625C9.4572 14.5625 12.0474 17.1527 12.0474 20.333C12.0474 23.5133 9.4572 26.1035 6.27687 26.1035ZM6.27687 15.0871C3.38507 15.0871 1.03097 17.4412 1.03097 20.333C1.03097 23.2248 3.38507 25.5789 6.27687 25.5789C9.16867 25.5789 11.5228 23.2248 11.5228 20.333C11.5228 17.4412 9.16867 15.0871 6.27687 15.0871Z"  fill-opacity="0.6"/>
<path id="Vector_6" d="M22.2868 8.70506L22.3328 4.13784C22.3492 2.50834 20.9131 1.2526 19.3 1.47227C15.7295 1.95752 12.736 3.18047 11.1655 3.9903C9.78192 4.70834 9.28361 6.43948 10.0705 7.78702L13.5229 13.751C13.5229 13.751 12.2114 15.4067 11.2278 20.246L11.9261 21.5772L15.9459 14.4887C16.1688 14.1051 16.2442 13.6559 16.159 13.2231C15.9327 12.0526 15.2541 9.45588 14.0803 7.83948C15.6082 6.93784 18.1656 6.4526 19.9623 6.4362V9.5903C22.1295 11.0592 24.4967 11.387 24.4967 11.387H25.4541L26.077 10.8985L22.2902 8.70178L22.2868 8.70506Z" />
<path id="Vector_7" d="M26.2049 10.8607H24.3294L24.9851 11.3853H26.2049C26.5721 11.3853 26.8738 11.6837 26.8738 12.0541C26.8738 12.4246 26.5754 12.723 26.2049 12.723H25.0146C24.1818 12.723 23.5032 13.4017 23.5032 14.2377V20.2148L24.0278 20.5164V14.2345C24.0278 13.6902 24.4703 13.2443 25.0146 13.2443H26.2049C26.8639 13.2443 27.3982 12.7099 27.3982 12.0509C27.3982 11.3918 26.8639 10.8574 26.2049 10.8574V10.8607Z" />
<path id="Vector_8" d="M14.0803 7.84266C15.6082 6.94102 18.1655 6.45578 19.9623 6.43938L19.982 4.44922L14.0803 7.84266Z"  fill-opacity="0.6"/>
<path id="Vector_9" d="M24.8441 0.474609C23.7228 0.474609 22.7785 1.22543 22.4834 2.24838L22.8769 2.93363H28.2965C28.2965 2.93363 27.2507 0.474609 24.8441 0.474609Z" />
<path id="Vector_10" d="M24.3196 2.93359L26.408 4.13032C26.6637 3.79917 26.8146 3.38605 26.8146 2.93359H24.3228H24.3196Z"  fill-opacity="0.6"/>
<path id="Subtract" fill-rule="evenodd" clip-rule="evenodd" d="M26.4063 4.12981C26.0468 4.59881 25.4808 4.90122 24.8442 4.90122C23.7577 4.90122 22.877 4.02047 22.877 2.93401C22.877 1.84755 23.7577 0.966797 24.8442 0.966797C25.9306 0.966797 26.8114 1.84755 26.8114 2.93401L24.3227 2.93401H24.3195L26.4063 4.12981Z" />
</g>
</g>
</svg>
