<svg class="sport-icon" width="18" height="29" viewBox="0 0 18 29" fill="none" xmlns="http://www.w3.org/2000/svg">
<g id="Diving">
<g id="Group">
<path id="Vector" d="M9.41814 16.2254C10.5046 16.2254 11.3854 15.3447 11.3854 14.2582C11.3854 13.1718 10.5046 12.291 9.41814 12.291C8.33168 12.291 7.45093 13.1718 7.45093 14.2582C7.45093 15.3447 8.33168 16.2254 9.41814 16.2254Z" />
<path id="Vector_2" d="M5.43457 8.44468C5.35916 8.9791 5.31978 9.48402 5.31978 9.92992C4.9329 10.5004 4.58209 11.0742 4.26733 11.6414L5.53618 13.8348L8.03126 9.51353L5.43128 8.44141L5.43457 8.44468Z"  fill-opacity="0.6"/>
<path id="Subtract" fill-rule="evenodd" clip-rule="evenodd" d="M5.43367 8.44268C5.92479 4.92986 7.96697 0.038906 10.8182 0.0351571L11.0215 4.33352L8.03131 9.51385L5.43367 8.44268ZM5.4335 8.44388C5.37126 8.88937 5.33397 9.31268 5.32314 9.70103C5.33405 9.31413 5.37186 8.88978 5.43462 8.44499L5.4335 8.44388ZM7.98685 9.59086L5.53624 13.8352L4.26915 11.6448C2.38418 15.046 1.74609 18.186 1.74609 18.186L2.38214 19.3007L7.98685 9.59086ZM10.8182 0.0351571H10.8215C10.8204 0.0351571 10.8193 0.0351552 10.8182 0.0351571Z" />
<path id="Vector_3" d="M14.169 7.74283L12.5985 10.4576L10.8247 9.49036V4.6543C10.8247 4.6543 12.7821 5.34938 14.1722 7.74283H14.169Z"  fill-opacity="0.6"/>
<path id="Subtract_2" fill-rule="evenodd" clip-rule="evenodd" d="M10.8213 9.49089V0.0351562H10.8246C15.8771 0.0351562 17.5525 8.63516 14.241 12.3466C13.6673 12.986 12.7263 13.1401 11.982 12.7106L2.92627 7.49089L3.90331 6.94335C3.90331 6.94335 6.99839 7.60237 10.8213 9.49089ZM12.5984 10.4581L14.1689 7.74336H14.1721C12.782 5.34991 10.8246 4.65483 10.8246 4.65483V9.49089L12.5984 10.4581Z" />
<path id="Vector_4" d="M14.4903 27.8506C13.569 27.8506 12.664 27.608 11.8673 27.1457L11.7362 27.0703L11.605 27.1457C10.8083 27.6047 9.90337 27.8506 8.98206 27.8506C8.06075 27.8506 7.15583 27.608 6.35911 27.1457L6.22795 27.0703L6.0968 27.1457C5.30007 27.6047 4.39516 27.8506 3.47385 27.8506C2.55253 27.8506 1.64762 27.608 0.850894 27.1457L0.588623 27.5982C1.46403 28.1031 2.46073 28.3719 3.47385 28.3719C4.48696 28.3719 5.38533 28.1293 6.22795 27.6703C7.07057 28.1293 8.01812 28.3719 8.98206 28.3719C9.94599 28.3719 10.8935 28.1293 11.7362 27.6703C12.5788 28.1293 13.5263 28.3719 14.4903 28.3719C15.2313 28.3719 15.9624 28.2277 16.6411 27.9556L17.1099 27.1457C16.3165 27.6047 15.4083 27.8474 14.4903 27.8474V27.8506Z"  fill-opacity="0.6"/>
</g>
</g>
</svg>
