<svg class="sport-icon" width="32" height="31" viewBox="0 0 32 31" fill="none"
  xmlns="http://www.w3.org/2000/svg">
  <path id="Vector" d="M15.6301 4.35547L17.4673 7.65648L21.1918 8.87065L19.5806 9.71529L16.345 8.74032L15.6301 4.35547Z"  fill-opacity="0.6"/>
  <g id="Group">
    <path id="Vector_2" d="M3.32844 17.0967C2.83354 17.954 2.06534 19.2848 1.45605 20.3395C2.70816 20.1091 3.92398 19.1632 4.68063 17.8523C5.61325 16.2367 6.63001 14.956 8.62007 15.0214C6.05977 13.5433 4.68063 14.7536 3.32789 17.0967H3.32844Z"  fill-opacity="0.6"/>
    <path id="Subtract" fill-rule="evenodd" clip-rule="evenodd" d="M-0.00830078 20.2597L2.54871 15.9606H2.54816C4.30177 12.923 7.42352 12.9274 8.62009 15.0225C6.05978 13.5444 4.68064 14.7547 3.3279 17.0978H3.32845L3.24071 17.2498C2.74598 18.1068 2.03041 19.3463 1.45606 20.3405C1.7532 20.2859 2.04828 20.1909 2.33568 20.0603C1.57319 20.4069 0.756633 20.5027 -0.00830078 20.2597Z" />
    <path id="Vector_3" d="M12.7317 28.1198V25.4155L9.7969 23.7113L10.3534 22.7512C11.1782 21.3281 11.5989 19.7065 11.5703 18.0617L11.6511 15.0879L7.6864 16.3521C7.9685 17.7631 6.29077 19.3446 7.71665 20.1585L8.06638 20.3581C8.73065 20.7375 8.95831 21.586 8.57283 22.247L7.35922 22.1128C7.15795 22.4576 6.70264 23.2192 6.70484 23.6184L11.5434 26.4328C11.5395 26.9403 11.5434 27.4429 11.5434 27.4429L12.7322 28.1193L12.7317 28.1198Z"  fill-opacity="0.6"/>
    <path id="Vector_4" d="M27.6255 5.58398L26.9024 6.76626L26.3195 9.85281C26.0297 10.7414 26.3871 11.7422 27.2268 12.2317L28.9073 13.211C29.5028 13.558 29.8674 14.1964 29.8641 14.886L30.9985 14.9069L32.0081 13.1764L27.6249 5.58508L27.6255 5.58398Z" />
    <path id="Union" fill-rule="evenodd" clip-rule="evenodd" d="M19.4729 9.7168V15.8696H19.4734C19.4734 16.3247 19.3488 16.7369 19.1374 17.0842L21.8182 16.7354L23.6619 13.5468C24.5198 12.0637 26.1035 11.1498 27.8169 11.1498C27.4029 11.3208 27.0597 11.631 26.837 12.0225H26.8365L23.4117 18.0477C23.2682 18.2918 23.1088 18.52 22.9355 18.7334L22.1118 18.7535V28.323L23.3102 30.4044H21.4662V30.4C21.4662 29.7038 21.0978 29.0599 20.4979 28.7068L20.8971 27.9887V23.7814C20.8971 23.7814 18.9398 21.1954 18.8133 17.5007C18.111 18.2184 16.9665 18.4677 15.975 17.9025L13.7457 16.6323C13.0418 16.2314 12.6074 15.4835 12.6074 14.6735V12.7005C14.4436 12.622 15.3896 12.0753 17.0743 11.1018C17.1237 11.0733 17.1737 11.0444 17.2243 11.0151L19.4729 9.7168ZM23.3102 30.4044H23.3106V30.4049L23.3102 30.4044Z"  fill-opacity="0.6"/>
    <path id="Subtract_2" fill-rule="evenodd" clip-rule="evenodd" d="M27.1587 6.46079C26.0826 6.32662 24.974 6.53943 24.0046 7.09867L17.2238 11.0134L17.0672 11.1039C16.4673 11.4505 15.9611 11.743 15.4747 11.9794C15.9631 11.7422 16.4714 11.4485 17.0743 11.1001C17.1237 11.0715 17.1737 11.0426 17.2244 11.0134L19.4729 9.71507V15.8678H19.4734C19.4734 17.6632 17.535 18.79 15.975 17.9008L13.7457 16.6305C13.0419 16.2297 12.6074 15.4818 12.6074 14.6718V12.6994C12.4541 12.7059 12.2946 12.7092 12.1279 12.7092H9.66772C6.58886 12.7092 4.64004 16.0141 6.1308 18.708V22.212L4.06375 23.3931C3.71676 23.5911 3.42972 23.8787 3.23176 24.2257L0.843018 28.3647L2.01154 30.4037H3.59799L2.52514 28.533L4.298 25.4635L6.32986 24.295C7.75574 23.4751 8.93086 22.2812 9.72821 20.8422L11.6429 17.5593C11.6429 17.5593 14.0647 18.9093 15.8639 19.981C18.4814 21.54 21.8671 20.6723 23.4118 18.0465L26.8369 12.0208H26.8365L23.4118 18.046C23.2682 18.2901 23.1088 18.5183 22.9356 18.7317L20.6304 18.7878L23.662 13.5451C24.4872 12.1183 25.9843 11.2183 27.6224 11.152C27.7282 11.0646 27.8404 10.9763 27.9583 10.8847L28.605 8.35628C28.8359 7.58532 28.1706 6.58782 27.1576 6.46134L27.1587 6.46079Z" />
  </g>
  <path id="Vector_5" d="M19.3931 19.7707L20.8376 17.5156L25.2022 19.8884L26.6137 22.3519L20.8723 25.6574H18.8679L19.9562 23.7866H21.5212C21.5212 23.7866 24.0479 22.9887 24.5027 21.5705C21.7389 21.025 19.3931 19.7702 19.3931 19.7702V19.7707Z" />
  <g id="Group_2">
    <path id="Vector_6" d="M11.9629 9.00931C11.8677 9.29251 11.749 9.86 11.6285 10.1844C11.044 11.7637 11.9442 13.1231 13.7132 12.9889C14.8509 13.0274 15.7181 12.8481 17.3029 12.792C17.1902 14.5643 17.3936 16.2817 17.7599 18.0006C18.0337 18.1485 18.2982 18.3097 18.5781 18.4493C18.7332 16.4125 18.9773 14.2509 19.106 12.2526C19.1527 11.5229 18.9366 11.1237 18.2817 10.9482C16.8223 10.5573 16.1168 10.6035 14.7068 10.1613C14.9933 9.30845 15.028 8.36263 15.1858 7.48005C15.5867 8.63923 15.7401 9.46517 15.7401 9.46517C15.7401 9.46517 19.1802 10.2466 20.4582 10.2466C20.5269 9.95843 20.5742 9.66588 20.6518 9.38049C19.4662 9.03076 18.2245 8.50341 16.9642 8.05469C16.4665 6.49465 16.2603 5.62746 15.8737 4.75973C15.4877 3.8931 14.5897 3.57526 13.9161 3.74188C13.5493 3.83261 13.2568 4.34071 13.0143 4.96869C12.7718 5.59667 11.9623 9.00986 11.9623 9.00986L11.9629 9.00931Z" />
    <path id="Vector_7" d="M13.2468 1.89512C13.2881 2.70951 13.9815 3.33639 14.7959 3.29515C15.6103 3.2539 16.2371 2.56049 16.1959 1.74609" />
    <path id="Union_2" fill-rule="evenodd" clip-rule="evenodd" d="M16.0735 1.22648C15.8341 0.681483 15.2767 0.313779 14.6468 0.345674C13.8324 0.386916 13.2056 1.08033 13.2468 1.89473L15.4492 1.78343L16.6897 1.72096L16.9646 1.18151L16.0735 1.22648Z"  fill-opacity="0.6"/>
  </g>
<defs>
  <clipPath id="clip0_6267_49273">
    <rect width="32.0165" height="30.0605" fill="white" transform="translate(-0.00830078 0.34375)"/>
  </clipPath>
</defs>
</svg>
