<svg class="sport-icon" width="40" height="26" viewBox="0 0 40 26" fill="none" xmlns="http://www.w3.org/2000/svg">
<g id="Fencing">
<path id="Vector" d="M20.5785 7.83286C21.6647 7.83286 22.5453 6.95211 22.5453 5.86565C22.5453 4.77919 21.6647 3.89844 20.5785 3.89844C19.4923 3.89844 18.6118 4.77919 18.6118 5.86565C18.6118 6.95211 19.4923 7.83286 20.5785 7.83286Z" />
<path id="Vector_2" d="M15.2915 17.9406H22.7093C22.7093 17.9406 20.7392 20.6292 19.9951 25.1046H21.4342L26.0297 17.0751C26.4034 16.4226 26.0101 15.5964 25.266 15.4751C23.8467 15.2456 21.5948 14.957 19.2118 14.957L15.8912 16.4751L15.2915 17.9406Z"  fill-opacity="0.6"/>
<path id="Vector_3" d="M14.2686 5.23536L14.2357 0.0976562L13.4523 0.546836C13.4523 0.546836 12.7936 2.45503 12.4363 6.2911C12.4363 6.2911 14.462 8.56651 17.1564 9.70421C17.7562 9.95667 17.6054 10.0255 18.0447 10.2485L19.8475 8.4452L14.2686 5.23208V5.23536Z" />
<path id="Vector_4" d="M15.7994 9.01953V12.3933C15.7994 12.8458 15.6978 13.2818 15.511 13.6753L17.5925 10.0687L15.7994 9.01953Z"  fill-opacity="0.6"/>
<path id="Subtract" fill-rule="evenodd" clip-rule="evenodd" d="M15.7994 6.19336L20.5884 8.86549L20.5852 8.86877C21.6636 9.47205 22.034 10.8425 21.4046 11.9048L19.7951 14.6261C19.1756 15.6917 18.2743 16.5639 17.1893 17.1475C8.03421 22.0622 0 24.6229 0 24.6229V23.3048L14.3113 14.9901C14.8531 14.6737 15.2725 14.202 15.5259 13.6495L17.5925 10.0688L15.7994 9.01959V12.3934C15.7994 12.3957 15.7994 12.398 15.7994 12.4003C15.7994 12.3991 15.7994 12.3979 15.7994 12.3966V6.19336Z" />
<path id="Union" fill-rule="evenodd" clip-rule="evenodd" d="M30.6349 8.32028C30.3262 7.98976 29.8208 7.90434 29.4123 8.14105L29.6969 8.6318L25.0462 11.3345L19.8475 8.45253L18.0447 10.2558C19.5853 11.0361 20.1982 11.587 20.1982 11.587C22.1879 12.4853 25.1347 13.3968 25.1347 13.3968C27.7659 12.0232 30.0815 9.59279 30.1886 9.47958L30.4088 9.85909C30.7937 9.63603 30.9722 9.19576 30.8799 8.78386L39.4656 3.80991L39.9999 2.89844L30.6349 8.32028Z"  fill-opacity="0.6"/>
</g>
</svg>
