<svg class="sport-icon" width="21" height="23" viewBox="0 0 21 23" fill="none" xmlns="http://www.w3.org/2000/svg">
<g id="Hockey">
<g id="Group">
<path id="Vector" d="M10.5231 4.14341C11.6096 4.14341 12.4903 3.26266 12.4903 2.1762C12.4903 1.08974 11.6096 0.208984 10.5231 0.208984C9.43666 0.208984 8.55591 1.08974 8.55591 2.1762C8.55591 3.26266 9.43666 4.14341 10.5231 4.14341Z" />
<path id="Vector_2" d="M14.5953 6.85841L10.1527 9.40267C10.1527 14.4322 8.95922 18.7633 8.95922 18.7633L7.99194 19.1928V8.48136C7.99194 7.35677 8.59861 6.3207 9.57894 5.77316L12.3165 4.15677C13.946 3.24529 15.2347 3.49447 16.1232 5.05841L17.8708 8.1371V13.8715L16.9461 14.0682C16.9461 14.0682 16.1624 11.2781 16.1624 8.74693C16.1624 8.74693 15.2019 7.93382 14.5921 6.85841H14.5953Z" />
<path id="Vector_3" d="M10.5559 22.8149C11.0991 22.8149 11.5395 22.3745 11.5395 21.8313C11.5395 21.288 11.0991 20.8477 10.5559 20.8477C10.0126 20.8477 9.57227 21.288 9.57227 21.8313C9.57227 22.3745 10.0126 22.8149 10.5559 22.8149Z" />
<path id="Union" fill-rule="evenodd" clip-rule="evenodd" d="M8.6936 9.20634L13.0116 6.38667V6.38339L15.0542 6.12109L12.4155 11.0637C13.3557 11.7879 15.0519 13.1685 15.7297 14.1932L17.0149 16.3965L15.1067 17.4981C14.8117 16.8719 14.6214 16.2686 14.6116 15.7342L11.02 13.6775L10.2739 15.0752C9.83781 15.8916 8.99191 16.3998 8.06732 16.3998H4.60181L5.82475 14.3014C6.64114 14.2358 7.10997 14.2358 7.10997 14.2358L8.6936 11.5768V9.20634Z"  fill-opacity="0.6"/>
<path id="Vector_4" d="M17.0148 16.3959L15.1067 17.4975C16.2936 19.9893 19.1625 22.8122 19.1625 22.8122H20.7165L17.0148 16.3926V16.3959Z" />
<path id="Vector_5" d="M1.19191 15.0949L0.421387 16.403H4.60172L5.82466 14.3047C4.7722 14.3932 3.14265 14.603 1.19511 15.0949H1.19191Z" />
<path id="Vector_6" d="M17.8738 13.875L4.00499 21.9209C3.87712 21.9963 3.73276 22.0356 3.58522 22.0356C3.51309 22.0356 3.43771 22.0258 3.36558 22.0061C3.14918 21.9471 2.96892 21.8061 2.85744 21.6094C2.63122 21.2094 2.77219 20.6979 3.17219 20.4717C3.29678 20.3995 3.45738 20.4454 3.52951 20.57C3.60164 20.6946 3.55581 20.8553 3.43122 20.9274C3.28367 21.0127 3.2311 21.2028 3.31307 21.3504C3.35569 21.4225 3.42129 21.475 3.50326 21.4979C3.58522 21.5209 3.66726 21.5077 3.73939 21.4651L17.2737 13.6094" />
</g>
</g>
</svg>
