<svg class="sport-icon" width="20" height="34" viewBox="0 0 20 34" fill="none" xmlns="http://www.w3.org/2000/svg">
<g id="Golf">
<g id="Group">
<path id="Vector" d="M11.8213 8.68788L16.0016 6.27148L17.2508 8.80919L12.4869 9.33378L11.8213 8.68788Z"  fill-opacity="0.6"/>
<path id="Vector_2" d="M14.2902 2.10352C15.4411 2.70679 17.6148 4.0445 18.9132 6.32974C18.9132 6.32974 18.4902 7.61171 17.4476 8.20515L13.9788 2.29368C14.323 2.09696 14.0115 2.26745 14.287 2.10352H14.2902Z"  fill-opacity="0.6"/>
<path id="Vector_3" d="M16.687 21.0983L9.47062 33.3901L8.70996 31.9475C8.70996 31.9475 12.8313 19.0983 15.4739 14.918L16.2247 14.954L16.6903 21.0983H16.687Z"  fill-opacity="0.6"/>
<path id="Vector_4" d="M8.10662 10.7801C9.19308 10.7801 10.0738 9.89938 10.0738 8.81292C10.0738 7.72645 9.19308 6.8457 8.10662 6.8457C7.02016 6.8457 6.1394 7.72645 6.1394 8.81292C6.1394 9.89938 7.02016 10.7801 8.10662 10.7801Z" />
<path id="Vector_5" d="M17.2378 12.898L15.382 9.49805L13.582 10.8062L17.2378 12.898Z"  fill-opacity="0.6"/>
<path id="Subtract" fill-rule="evenodd" clip-rule="evenodd" d="M11.4903 13.3047L15.1624 15.4489H15.1591C14.8411 24.1276 17.8673 33.3899 17.8673 33.3899H18.9755V18.5178C18.9755 16.9309 18.5788 15.367 17.8181 13.9735L17.2302 12.8938L13.5821 10.8063L15.3814 9.49859L14.8313 8.48828H12.7821C10.1395 8.48828 9.20175 11.9834 11.4903 13.3047Z" />
<path id="Vector_6" d="M14.8344 8.48733H16.4606L13.0115 2.64471L13.9754 2.07422C13.9754 2.07422 17.3754 5.59553 19.4475 9.13323C19.4475 9.13323 17.1721 11.1037 13.136 11.1037L14.8344 8.48733Z" />
<path id="Vector_7" d="M0.726243 9.53352L15.6377 0.943359L15.8967 1.3991L1.41476 9.74992L2.4246 11.4876L1.27706 12.1434C0.119684 11.5532 -0.17212 10.0581 0.722962 9.53352H0.726243Z" />
</g>
</g>
</svg>
