<svg class="sport-icon" width="39" height="25" viewBox="0 0 39 25" fill="none"
  xmlns="http://www.w3.org/2000/svg">
  <g id="Group">
    <path id="Subtract" fill-rule="evenodd" clip-rule="evenodd" d="M20.1764 15.3984C21.0176 16.9662 22.3659 19.7615 23.2918 23.076L22.8295 23.8662L19.8514 18.7088C19.9841 17.6548 20.1012 16.5265 20.1764 15.3984ZM18.0525 8.0636L14.7812 6.19597C15.7434 6.7362 17.0093 6.87879 18.0525 6.62687V8.0636ZM18.4853 3.555C19.6509 4.14857 20.6144 5.07769 21.259 6.22031L21.4848 6.62029H29.1377L27.3312 3.57439C25.0623 3.28915 22.6361 3.0957 20.2492 3.0957L20.2525 3.09898C19.6107 3.09898 19.0055 3.26368 18.4853 3.555ZM27.3344 3.5777C31.8984 4.15147 35.7246 5.1154 37.4754 5.64655H37.4787L38.0557 6.6236H29.141L27.3344 3.5777Z"  fill-opacity="0.6"/>
    <path id="Union" fill-rule="evenodd" clip-rule="evenodd" d="M21.6032 6.82929L21.259 6.21946C20.5672 4.99323 19.5081 4.0129 18.2262 3.42929C9.59339 -0.48546 0.0622559 0.560441 0.0622559 0.560441L0.622899 1.51782C0.622899 1.51782 4.73766 2.93421 9.15733 2.93421L14.7377 6.17028C15.7049 6.73093 16.9934 6.88175 18.0524 6.62602V23.8687H15.5245L15.8327 24.3932H22.5213L22.8262 23.8687H19.0187C19.2348 22.7825 19.9318 19.0823 20.177 15.3867C22.5541 13.2686 23.2262 9.71782 21.6065 6.82929H21.6032ZM17.3967 14.3047C17.3967 15.3912 16.5159 16.2719 15.4295 16.2719C14.343 16.2719 13.4623 15.3912 13.4623 14.3047C13.4623 13.2182 14.343 12.3375 15.4295 12.3375C16.5159 12.3375 17.3967 13.2182 17.3967 14.3047Z" />
  </g>
</svg>
