<svg class="sport-icon" width="23" height="27" viewBox="0 0 23 27" fill="none" xmlns="http://www.w3.org/2000/svg">
<g id="Handball">
<g id="Group">
<path id="Vector" d="M12.9621 4.84458C14.0485 4.84458 14.9293 3.96383 14.9293 2.87737C14.9293 1.79091 14.0485 0.910156 12.9621 0.910156C11.8756 0.910156 10.9949 1.79091 10.9949 2.87737C10.9949 3.96383 11.8756 4.84458 12.9621 4.84458Z" />
<path id="Vector_2" d="M4.59499 18.3398L3.36548 19.0448L5.95225 20.5333C6.57192 20.0972 7.22435 19.6808 7.89321 19.3005C6.07026 18.4743 4.59499 18.3398 4.59499 18.3398Z"  fill-opacity="0.6"/>
<path id="Vector_3" d="M3.67026 4.43555L3.5686 5.83227C4.65713 7.288 5.69645 8.33063 7.15547 9.19292L9.54901 7.83227L3.67026 4.43883V4.43555Z"  fill-opacity="0.6"/>
<path id="Vector_4" d="M8.56543 22.0388L10.995 23.4388C11.5491 23.7568 12.2571 23.5667 12.5785 23.0126L15.9819 17.124C16.5556 16.1339 16.8539 15.0093 16.8539 13.865V10.8027L11.3129 20.4552L8.56543 22.0388Z"  fill-opacity="0.6"/>
<path id="Vector_5" d="M18.139 6.2241L16.8572 5.47656V6.96181L18.139 6.2241Z"  fill-opacity="0.6"/>
<path id="Subtract" fill-rule="evenodd" clip-rule="evenodd" d="M16.5128 3.81165C17.3456 3.33624 18.4046 3.36247 19.2439 3.82804L19.2374 3.83788C20.3882 4.47395 21.9259 5.47722 22.5555 6.57231L19.4801 11.9133L18.8375 10.7789C18.8375 10.7789 19.3062 8.71657 19.9751 7.29034L18.1324 6.23132L16.8472 6.96903V10.8084L11.28 20.5231L8.55875 22.0412L0.814453 26.5395L0.837347 25.1166C0.837347 25.1166 3.06041 22.5592 5.94893 20.5362C6.57188 20.1002 7.22431 19.6805 7.88989 19.3035C7.94398 19.274 7.99725 19.2444 8.05052 19.2149C8.1038 19.1854 8.15709 19.1559 8.21119 19.1264C8.90122 17.9709 9.46192 16.9717 9.94076 16.1184C11.1888 13.8943 11.8808 12.6611 12.8571 12.2346L11.4702 9.92968H8.59814C8.07027 9.6969 7.59153 9.451 7.15218 9.19198L9.54556 7.83132L16.5128 3.81165ZM16.8571 5.47723L18.139 6.22477L16.8571 6.96247V5.47723Z" />
<path id="Vector_6" d="M2.726 8.12974C3.81246 8.12974 4.69321 7.24899 4.69321 6.16253C4.69321 5.07606 3.81246 4.19531 2.726 4.19531C1.63954 4.19531 0.758789 5.07606 0.758789 6.16253C0.758789 7.24899 1.63954 8.12974 2.726 8.12974Z" />
</g>
</g>
</svg>
