<svg class="sport-icon" width="29" height="29" viewBox="0 0 29 29" fill="none" xmlns="http://www.w3.org/2000/svg">
<g id="Judo">
<g id="Group">
<path id="Vector" d="M13.8835 25.1325L20.595 13.6309H19.395C19.395 13.6309 16.7425 15.3325 15.0179 18.7194C15.0179 18.7194 12.0966 21.3784 10.5261 25.0637L13.8835 25.1292V25.1325Z"  fill-opacity="0.6"/>
<path id="Vector_2" d="M27.0148 24.3446C28.1013 24.3446 28.982 23.4638 28.982 22.3774C28.982 21.2909 28.1013 20.4102 27.0148 20.4102C25.9284 20.4102 25.0476 21.2909 25.0476 22.3774C25.0476 23.4638 25.9284 24.3446 27.0148 24.3446Z" />
<path id="Vector_3" d="M22.1362 28.3817C23.2226 28.3817 24.1034 27.5009 24.1034 26.4145C24.1034 25.328 23.2226 24.4473 22.1362 24.4473C21.0497 24.4473 20.1689 25.328 20.1689 26.4145C20.1689 27.5009 21.0497 28.3817 22.1362 28.3817Z" />
<path id="Vector_4" d="M17.7853 22.7029V23.9848L23.1263 20.1848H24.9328C25.582 20.1848 26.1787 19.9553 26.6476 19.5717L23.1033 17.5586C23.1033 17.5586 20.2279 19.0635 17.782 22.7029H17.7853Z"  fill-opacity="0.6"/>
<path id="Vector_5" d="M23.1886 11.8833L8.42139 11.9882L9.005 10.9849C9.005 10.9849 13.3395 9.67344 17.0706 9.66032C17.0706 9.66032 20.8345 8.46032 24.8115 8.94229L23.1886 11.8833Z"  fill-opacity="0.6"/>
<path id="Vector_6" d="M27.6409 17.4764V11.86C27.6409 10.1584 26.7294 8.58463 25.254 7.73545L20.1622 4.81087C20.1622 4.81087 18.9884 2.28628 16.1294 0.220703H14.7852L18.8114 7.21742L23.1064 9.68299V17.5617L26.6507 19.5748C27.2573 19.0797 27.6442 18.3256 27.6442 17.4797L27.6409 17.4764Z" />
<path id="Vector_7" d="M20.359 20.9395C18.7885 22.1821 17.0639 24.7854 17.0639 24.7854H11.8672L6.11642 21.4575C5.47052 21.0804 4.64097 21.31 4.27376 21.9624L0.591797 28.3854H1.96883C3.93604 27.1165 5.59508 24.2411 5.59508 24.2411C6.15573 25.2313 6.94589 26.1854 7.6377 26.9296C8.50327 27.8575 9.71637 28.3854 10.9852 28.3854H16.2705C17.3754 28.3854 18.3885 27.7722 18.9 26.7919L21.3393 22.5067C23.018 21.4804 23.9754 19.9034 23.9754 19.9034V18.8477L20.3557 20.9395H20.359Z" />
</g>
</g>
</svg>
