<svg class="sport-icon" width="34" height="36" viewBox="0 0 34 36" fill="none" xmlns="http://www.w3.org/2000/svg">
<g id="Modern Penthatlon">
<g id="Group">
<path id="Vector" d="M16.5819 30.025C17.3967 30.025 18.0573 29.3645 18.0573 28.5496C18.0573 27.7348 17.3967 27.0742 16.5819 27.0742C15.767 27.0742 15.1064 27.7348 15.1064 28.5496C15.1064 29.3645 15.767 30.025 16.5819 30.025Z" />
<path id="Vector_2" d="M11.8506 28.081L11.8277 24.2285L11.2374 24.5662C11.2374 24.5662 10.7458 25.9957 10.4736 28.8744C10.4736 28.8744 11.9949 30.5793 14.0146 31.4351C14.4637 31.6252 14.3523 31.6777 14.6834 31.8449L16.0375 30.4908L11.8506 28.081Z" />
<path id="Vector_3" d="M12.998 30.916V33.4472V34.034L14.3423 31.7029L12.998 30.916Z"  fill-opacity="0.6"/>
<path id="Subtract" fill-rule="evenodd" clip-rule="evenodd" d="M12.998 28.7949L16.5915 30.8015V30.7982C17.398 31.2474 17.6768 32.2769 17.2046 33.0736L15.7292 35.6146L12.998 34.0375V34.0343L14.3423 31.7031L12.998 30.9162V28.7949Z" />
<path id="Union" fill-rule="evenodd" clip-rule="evenodd" d="M24.3075 30.7396L30.7523 27.0075L31.1524 26.3223L24.1222 30.3921C23.8907 30.1472 23.513 30.083 23.2096 30.2591L23.2081 30.2567V30.26C23.2086 30.2597 23.2091 30.2594 23.2096 30.2591L23.4212 30.6241L19.9326 32.6502L16.0344 30.4895L14.6802 31.8436C15.8343 32.4272 16.2966 32.8436 16.2966 32.8436C17.7884 33.5157 20.0015 34.201 20.0015 34.201C21.9727 33.1705 23.7098 31.3499 23.792 31.2632L23.9556 31.5452C24.2423 31.378 24.3765 31.0473 24.3075 30.7396Z"  fill-opacity="0.6"/>
<path id="Vector_4" d="M5.12622 26.5223H8.34264L10.2999 23.1387H9.4311C9.4311 23.1387 8.39499 24.1747 7.82778 25.1518C7.82778 25.1518 6.81464 24.9747 5.75891 24.9747C4.70317 24.9747 5.12286 26.5223 5.12286 26.5223H5.12622Z"  fill-opacity="0.6"/>
<path id="Vector_5" d="M4.00153 23.0875C4.81638 23.0875 5.47694 22.427 5.47694 21.6121C5.47694 20.7973 4.81638 20.1367 4.00153 20.1367C3.18669 20.1367 2.52612 20.7973 2.52612 21.6121C2.52612 22.427 3.18669 23.0875 4.00153 23.0875Z" />
<path id="Vector_6" d="M5.32919 25.2319C5.32919 24.3172 4.58827 23.5762 3.67352 23.5762H1.77851C1.00474 23.5762 0.532511 24.4286 0.942347 25.0844L1.19817 25.4975C1.52276 26.0155 1.78174 26.5663 1.97846 27.1368L5.32919 29.0745V25.2319Z"  fill-opacity="0.6"/>
<path id="Subtract_2" fill-rule="evenodd" clip-rule="evenodd" d="M5.32926 29.0731L1.97971 27.1361C2.10093 27.4873 2.198 27.8465 2.27038 28.2108L5.32926 29.9781V29.0731ZM1.19824 25.4961C1.3852 25.7945 1.55039 26.1037 1.69445 26.4213C1.5498 26.1036 1.38425 25.7944 1.19824 25.4961Z" />
<path id="Vector_7" d="M1.05068 25.5526L4.68349 27.6411L7.05061 23.5723H1.5753C0.490051 23.5723 0.106413 25.0116 1.05068 25.5493V25.5526Z" />
<path id="Vector_8" d="M15.8114 22.7695H7.4573L5.37866 23.9794L6.24092 24.6712L8.91958 23.163H15.8114V22.7695Z" />
<path id="Vector_9" d="M5.16531 9.32227C3.69318 11.7977 3.3457 14.6567 3.3457 14.6567L4.13256 16.0206L6.90631 11.2436C6.90631 11.2436 5.88006 9.75833 5.16531 9.32555V9.32227Z"  fill-opacity="0.6"/>
<path id="Vector_10" d="M12.0442 4.75217L9.13916 3.08004L9.68347 5.84398C11.3786 6.55218 12.736 6.42431 12.736 6.42431C14.0671 4.37185 14.3359 2.28004 14.3359 2.28004L13.9064 1.53906L12.0408 4.75217H12.0442Z"  fill-opacity="0.6"/>
<path id="Vector_11" d="M6.2408 4.2514L6.20142 8.15304L8.5719 4.23828L6.2408 4.2514Z"  fill-opacity="0.6"/>
<path id="Vector_12" d="M9.13912 3.08079L9.51614 3.29718C10.4145 3.81194 10.7194 4.96604 10.1916 5.85784L8.10973 9.4644C8.10973 9.4644 9.52932 9.62177 11.3031 10.4972C11.8932 10.789 11.926 11.6218 11.3522 11.9496L5.56218 15.2906L6.31942 13.9857C6.31942 13.9857 7.34903 12.8546 8.89002 11.6677L6.53586 11.6808C5.31947 11.6939 4.5522 10.3759 5.16531 9.32342L8.05385 4.33653H4.83104L2.81452 7.84472L2.4375 7.19227C2.4375 7.19227 2.92273 4.7267 4.13912 3.16932C4.13912 3.16932 7.04404 1.90703 9.13912 3.07752" />
<path id="Vector_13" d="M0.942383 19.8812L1.42442 20.7139L4.1359 16.0221L3.34905 14.6582C1.24413 16.832 0.945745 19.8812 0.945745 19.8812H0.942383Z" />
<path id="Vector_14" d="M10.6146 3.14613C11.4294 3.14613 12.09 2.48557 12.09 1.67072C12.09 0.855876 11.4294 0.195312 10.6146 0.195312C9.79972 0.195312 9.13916 0.855876 9.13916 1.67072C9.13916 2.48557 9.79972 3.14613 10.6146 3.14613Z" />
<path id="Vector_15" d="M24.4277 5.44727L24.5491 7.40464C24.5491 7.40464 28.4738 9.36203 31.6148 10.2276L32.1655 9.903L24.4311 5.44727H24.4277Z"  fill-opacity="0.6"/>
<path id="Vector_16" d="M25.6278 5.33559C26.4426 5.33559 27.1032 4.67502 27.1032 3.86018C27.1032 3.04533 26.4426 2.38477 25.6278 2.38477C24.8129 2.38477 24.1523 3.04533 24.1523 3.86018C24.1523 4.67502 24.8129 5.33559 25.6278 5.33559Z" />
<path id="Vector_17" d="M24.6439 7.44466C25.2735 6.884 25.1586 5.86761 24.4275 5.44794L19.7062 2.7168C17.7259 3.68729 16.1128 5.37254 16.1128 5.37254L16.8079 5.76597L19.444 4.24138L21.4046 5.3627L20.6932 5.78893C20.0243 6.18893 19.2603 6.39876 18.4833 6.39876H17.9292L22.0244 8.71679C23.0047 8.5463 23.9129 8.10368 24.6473 7.44466H24.6439Z" />
<path id="Vector_18" d="M23.49 12.2812V13.8714L25.1719 14.8517L24.3228 15.2583L21.8113 14.0649L23.49 12.2812Z"  fill-opacity="0.6"/>
<path id="Union_2" fill-rule="evenodd" clip-rule="evenodd" d="M30.5753 16.166C30.2638 16.2972 30.0081 16.5299 29.8409 16.8218L27.2774 21.33H29.6048L30.1328 22.2054L28.2279 25.5004L27.0573 26.1759L27.0672 24.1923L28.1819 23.3595L27.0704 23.189C26.9316 23.1474 26.7945 23.1156 26.6644 23.0854C26.1582 22.9679 25.7585 22.8751 25.782 22.33L25.8012 21.8788L25.1885 21.8939L27.4605 17.9627C28.1031 16.8513 29.29 16.166 30.5753 16.166Z"  fill-opacity="0.6"/>
<path id="Subtract_3" fill-rule="evenodd" clip-rule="evenodd" d="M30.0834 12.6507C29.2768 12.549 28.4473 12.7097 27.7195 13.1293L24.3228 15.0907V19.6998C24.3228 21.0474 22.8703 21.89 21.6998 21.2244L20.0277 20.2736C19.4998 19.972 19.1753 19.4113 19.1753 18.8048V17.3286C19.061 17.3335 18.9421 17.3359 18.8178 17.3359H17.2539L19.7555 21.7064C20.3358 22.0375 21.0211 22.431 21.6179 22.7884C23.5785 23.9556 26.1162 23.3064 27.2736 21.3392L29.8474 16.8113C29.8595 16.79 29.872 16.7691 29.8851 16.7485C29.8697 16.7723 29.855 16.7965 29.8408 16.8212L27.2736 21.3359C27.1654 21.5195 27.0474 21.69 26.9163 21.8507L25.1884 21.8933L27.4604 17.9621C28.0795 16.8914 29.2037 16.2162 30.4344 16.1682C30.512 16.1041 30.5942 16.0392 30.6802 15.972L31.1654 14.0769C31.3392 13.4998 30.8408 12.7523 30.0802 12.6572L30.0834 12.6507Z" />
<path id="Vector_19" d="M24.2671 21.8516L23.3655 23.3598H27.6146C27.2573 24.3171 25.4409 24.7762 25.4409 24.7762H24.2671L23.4506 26.1794H24.9523L29.254 23.7007L28.195 21.8548H24.2638L24.2671 21.8516Z" />
<path id="Vector_20" d="M30.4309 11.9961L29.89 12.8813L29.4539 15.1961C29.2375 15.8617 29.5032 16.6125 30.1327 16.9797L31.3916 17.7141C31.8375 17.9731 32.1129 18.4518 32.1097 18.9699L32.9588 18.9863L33.7162 17.6879L30.4309 11.9994V11.9961Z" />
<path id="Vector_21" d="M24.3227 19.703V15.0898L22.6374 16.0636C21.303 16.8341 20.595 17.2669 19.1753 17.3259V18.8046C19.1753 19.4112 19.4998 19.9718 20.0276 20.2734L21.6998 21.2243C22.8703 21.8898 24.3227 21.0472 24.3227 19.6997V19.703Z"  fill-opacity="0.6"/>
<path id="Vector_22" d="M23.6934 11.4375C23.6934 12.0473 24.1884 12.5457 24.8015 12.5457C25.4146 12.5457 25.9065 12.0506 25.9065 11.4375" />
<path id="Union_3" fill-rule="evenodd" clip-rule="evenodd" d="M24.8015 10.3301C25.273 10.3301 25.6758 10.6279 25.8344 11.0448H26.5031L26.2769 11.4383H25.9065H24.9163H23.6934C23.6934 10.8252 24.1917 10.3301 24.8015 10.3301Z"  fill-opacity="0.6"/>
<path id="Vector_23" d="M24.3523 15.7622L24.6736 15.2245L22.631 14.0474L23.3392 12.8245C23.7458 12.1228 23.2409 11.2441 22.431 11.2441C21.1851 11.2441 19.9622 11.5655 18.8802 12.1786L17.9589 12.6999C16.8441 13.3425 16.8441 14.9523 17.9589 15.595L20.7622 17.1491C20.7622 17.1491 20.0475 18.3556 19.4836 20.4704L20.0409 21.1163L22.1983 17.3884C22.4245 17.0015 22.3687 16.5097 22.0638 16.1819C21.5097 15.5819 21.1425 15.1425 19.7818 14.2409L21.5262 13.1851C21.2836 13.8671 21.1393 14.3982 21.1393 14.3982C22.5917 15.3786 24.3523 15.7589 24.3523 15.7589V15.7622Z" />
</g>
</g>
</svg>
