<svg class="sport-icon" width="34" height="34" viewBox="0 0 34 34" fill="none" xmlns="http://www.w3.org/2000/svg">
<g id="Gymnastics Rhythm">
<g id="Group">
<path id="Vector" d="M25.0574 2.24392C19.9754 -0.690508 13.5689 0.696377 10.1099 5.25703L10.5688 5.52261C13.877 1.21441 19.9656 -0.0905079 24.7951 2.69966C30.0508 5.73244 31.8574 12.4767 28.8213 17.7324C25.7885 22.9882 19.0443 24.7947 13.7885 21.7587C12.9721 21.2865 12.2377 20.7259 11.5918 20.0931L11.123 20.3652C11.8246 21.0669 12.6246 21.6931 13.5262 22.2111C19.0311 25.3882 26.0967 23.4964 29.2738 17.9915C32.4508 12.4865 30.559 5.42097 25.0541 2.24392H25.0574Z"  fill-opacity="0.6"/>
<path id="Vector_2" d="M20.0738 11.0347L10.1099 5.25763L10.8476 4.82812C15.6246 6.15927 19.2705 8.2478 19.2705 8.2478C20.7164 9.0937 22.7492 10.1986 22.7492 10.1986L20.0705 11.0314L20.0738 11.0347Z"  fill-opacity="0.6"/>
<path id="Vector_3" d="M11.323 10.1843C5.99841 7.79088 1.80824 6.71875 1.80824 6.71875L0.788574 7.30236L17.146 16.745L17.5919 13.3778C15.4246 12.1286 13.2902 11.0663 11.323 10.181V10.1843Z"  fill-opacity="0.6"/>
<path id="Vector_4" d="M22.9 13.3219L23.959 11.4629H21.8279L22.9 13.3219Z"  fill-opacity="0.6"/>
<path id="Subtract" fill-rule="evenodd" clip-rule="evenodd" d="M22.4705 14.0774C21.7721 15.3069 20.4836 16.0774 19.0705 16.1167L19.0672 16.1135L17.7918 16.1036L17.8901 33.3922L16.6246 32.6479C15.2278 27.202 14.2803 20.4479 14.054 16.1331C13.9655 14.4938 15.2738 13.1233 16.9131 13.1233H17.6377C18.3819 13.0676 19.054 12.6446 19.4245 11.9889L20.359 10.3331C20.6639 9.7856 21.241 9.45117 21.8672 9.45117H33.677L33.2213 10.2413C28.6016 11.3528 24.7164 11.4479 23.959 11.461L23.9571 11.4643H21.8278L22.8997 13.3229L22.4705 14.0774Z" />
<path id="Vector_5" d="M22.1591 8.80161C23.2456 8.80161 24.1263 7.92086 24.1263 6.8344C24.1263 5.74794 23.2456 4.86719 22.1591 4.86719C21.0726 4.86719 20.1919 5.74794 20.1919 6.8344C20.1919 7.92086 21.0726 8.80161 22.1591 8.80161Z" />
</g>
</g>
</svg>
