<svg class="sport-icon" width="40" height="29" viewBox="0 0 40 29" fill="none" xmlns="http://www.w3.org/2000/svg">
<g id="Rowing">
<g id="Group">
<path id="Vector" d="M30.3035 7.9377L32.0281 10.882C32.0281 10.882 33.4707 11.4426 33.5002 11.3705C33.5297 11.2984 34.228 7.18359 34.228 7.18359L30.3035 7.94097V7.9377Z"  fill-opacity="0.6"/>
<path id="Union" fill-rule="evenodd" clip-rule="evenodd" d="M19.3098 5.51172H19.9164L23.0976 10.9962L24.2999 8.89205C24.5589 8.44287 25.0901 8.22648 25.5885 8.36746C25.6508 8.38386 25.7163 8.40352 25.7819 8.4232L28.3032 12.7675L25.618 11.2101C25.2457 11.9038 24.8032 12.5642 24.3532 13.1609L25.7852 15.6298H25.1787L24.0058 13.6077C22.8597 15.0394 21.7688 16.0068 21.7688 16.0068L20.418 15.6855L22.7966 11.5229L19.3098 5.51172Z"  fill-opacity="0.6"/>
<path id="Subtract" fill-rule="evenodd" clip-rule="evenodd" d="M31.559 5.51172H19.3164L20.064 6.8068C20.064 6.8068 26.6344 8.115 33.3951 8.115L31.9361 10.6658C29.1295 9.45598 26.9164 8.74451 25.5918 8.36746C25.3147 8.28778 25.0296 8.31913 24.7862 8.43888C25.0296 8.32056 25.314 8.28982 25.5885 8.36746C25.6508 8.38386 25.7164 8.40352 25.7819 8.4232L28.298 12.7584L32.559 15.2232C36.7525 15.2232 37.9492 9.45599 33.3394 6.09205C32.8213 5.715 32.1984 5.51172 31.559 5.51172ZM25.6205 11.2115L25.618 11.2101C24.2155 13.8235 21.8165 15.9644 21.7695 16.0062L21.7721 16.0068C21.7721 16.0068 24.204 13.8502 25.6205 11.2115Z" />
<path id="Vector_2" d="M30.3622 4.84849C31.4487 4.84849 32.3294 3.96774 32.3294 2.88128C32.3294 1.79481 31.4487 0.914062 30.3622 0.914062C29.2758 0.914062 28.395 1.79481 28.395 2.88128C28.395 3.96774 29.2758 4.84849 30.3622 4.84849Z" />
<path id="Vector_3" d="M15.0312 7.9377L16.7558 10.882C16.7558 10.882 18.1985 11.4426 18.228 11.3705C18.2575 11.2984 18.9558 7.18359 18.9558 7.18359L15.0312 7.94097V7.9377Z"  fill-opacity="0.6"/>
<path id="Vector_4" d="M4.99521 15.8972L6.47718 16.0054C6.47718 16.0054 7.68373 14.9529 8.89029 13.3922L7.65095 11.2578L4.99194 15.8939L4.99521 15.8972Z"  fill-opacity="0.6"/>
<path id="Subtract_2" fill-rule="evenodd" clip-rule="evenodd" d="M16.2673 5.51172H4.02466L4.77219 6.8068C4.77219 6.8068 11.3427 8.115 18.1033 8.115L16.6443 10.6658C13.8378 9.45598 11.6247 8.74451 10.3001 8.36746C9.79843 8.2232 9.27055 8.44287 9.01153 8.89205L7.65333 11.2634L8.88859 13.3908C9.39833 12.7357 9.9088 11.9942 10.3296 11.2101L17.2673 15.2232C21.4607 15.2232 22.6575 9.45599 18.0476 6.09205C17.5296 5.715 16.9066 5.51172 16.2673 5.51172ZM6.72337 15.7817C6.57222 15.9236 6.48273 16.0019 6.47742 16.0066L6.48039 16.0068C6.48039 16.0068 6.56943 15.9278 6.72337 15.7817Z" />
<path id="Vector_5" d="M15.0673 4.84849C16.1538 4.84849 17.0345 3.96774 17.0345 2.88128C17.0345 1.79481 16.1538 0.914062 15.0673 0.914062C13.9808 0.914062 13.1001 1.79481 13.1001 2.88128C13.1001 3.96774 13.9808 4.84849 15.0673 4.84849Z" />
<path id="Vector_6" d="M1.02793 16.4163C1.7394 16.5213 2.46399 16.577 3.19514 16.577C5.10333 16.577 6.99515 16.2032 8.6804 15.4983C10.3624 16.2032 12.2574 16.577 14.1656 16.577C16.0738 16.577 17.9656 16.2032 19.6509 15.4983C21.3328 16.2032 23.2279 16.577 25.1361 16.577C27.0443 16.577 28.9361 16.2032 30.6214 15.4983C32.3033 16.2032 34.1984 16.577 36.1066 16.577C37.1263 16.577 38.1394 16.4721 39.1165 16.2655L38.841 15.7868C38.2836 15.895 37.7165 15.9737 37.1427 16.0163L37.7853 14.918H2.16236L2.82138 16.0491C2.10335 16.0294 1.39186 15.9573 0.696777 15.8327L1.03449 16.4196L1.02793 16.4163Z" />
<path id="Vector_7" d="M4.62464 5.51172H4.01807L11.2181 17.9248H11.8246L4.62464 5.51172Z" />
</g>
</g>
</svg>
