<svg class="sport-icon" width="14" height="28" viewBox="0 0 14 28" fill="none" xmlns="http://www.w3.org/2000/svg">
<g id="Rugby">
<g id="Group">
<path id="Vector" d="M10.8408 14.7305L8.95239 18.0092L9.37536 18.7436C9.37536 18.7436 8.71956 22.9895 10.8737 27.4092H11.9655V18.4321C11.9655 18.2026 11.9425 17.9731 11.8933 17.7469C11.6507 16.6583 11.2409 15.596 10.8442 14.7305H10.8408Z" />
<path id="Vector_2" d="M0.771973 16.0157L1.66705 15.8911C1.66705 15.8911 2.77201 12.0976 2.77201 9.37305L0.771973 10.514V16.0189V16.0157Z"  fill-opacity="0.6"/>
<path id="Vector_3" d="M10.2867 5.75978L6.2769 3.45486C5.17526 2.81879 3.76876 3.19912 3.13269 4.29748L0.771973 8.38929V10.5106L2.772 9.36961L5.07029 5.54666L9.99825 8.45486L8.05729 11.8549C5.36876 13.2352 3.05073 15.5467 3.05073 15.5467V17.2549L9.77524 13.3729L11.5294 10.3663C12.4605 8.74994 11.9031 6.68437 10.2867 5.75322V5.75978Z" />
<path id="Subtract" fill-rule="evenodd" clip-rule="evenodd" d="M7.15294 14.8869L9.77513 13.3731L10.9013 11.4428C12.9021 14.3649 13.2915 16.2586 13.3588 18.3338C13.3752 18.8551 12.962 19.2879 12.4407 19.2879H5.5948L6.28 18.1436C6.28 18.1436 7.29641 17.7195 8.6651 17.5186L7.15294 14.8869ZM9.99814 8.45508L8.05718 11.8551C7.36746 12.2092 6.70212 12.6246 6.09404 13.0465L5.08667 11.2977L9.99814 8.45508ZM9.27418 17.4478L9.3456 17.442L9.31474 17.3773L9.27418 17.4478Z"  fill-opacity="0.6"/>
<path id="Subtract_2" fill-rule="evenodd" clip-rule="evenodd" d="M10.7426 8.19266L9.75243 12.6714H9.75563C9.75563 12.6714 9.76887 12.6943 9.79838 12.7402L6.93273 14.4976L6.0973 13.0443C6.70454 12.6231 7.36881 12.2085 8.05737 11.855L9.99833 8.45496L5.09164 11.2948L3.06714 7.77299L4.9852 5.19922L10.7426 8.19266Z" />
<path id="Vector_4" d="M3.98135 16.2533C4.61512 15.1556 4.49327 13.8987 3.70918 13.446C2.92509 12.9933 1.7757 13.5162 1.14193 14.614C0.508156 15.7117 0.630012 16.9685 1.4141 17.4212C2.19818 17.8739 3.34758 17.351 3.98135 16.2533Z" />
<path id="Vector_5" d="M9.9948 4.54966C11.0813 4.54966 11.962 3.66891 11.962 2.58245C11.962 1.49599 11.0813 0.615234 9.9948 0.615234C8.90834 0.615234 8.02759 1.49599 8.02759 2.58245C8.02759 3.66891 8.90834 4.54966 9.9948 4.54966Z" />
</g>
</g>
</svg>
