<svg class="sport-icon" width="24" height="36" viewBox="0 0 24 36" fill="none" xmlns="http://www.w3.org/2000/svg">
<g id="Sailing">
<g id="Group">
<path id="Vector" d="M21.8983 25.9332C22.7131 25.9332 23.3737 25.2727 23.3737 24.4578C23.3737 23.643 22.7131 22.9824 21.8983 22.9824C21.0834 22.9824 20.4229 23.643 20.4229 24.4578C20.4229 25.2727 21.0834 25.9332 21.8983 25.9332Z" />
<path id="Vector_2" d="M20.672 28.1211L19.2097 30.826L21.4458 30.7604L22.754 28.2522L20.672 28.1211Z"  fill-opacity="0.6"/>
<path id="Vector_3" d="M17.344 22.7305L16.8457 23.6059C16.8457 23.6059 17.285 26.1862 18.5506 27.901C19.9014 28.337 22.2358 28.3239 22.2358 28.3239L21.0063 30.4387C19.2981 30.4387 17.8522 30.5829 16.5801 30.7567L20.7309 33.1698C21.1112 32.9829 21.4358 32.6878 21.6555 32.3108L23.7506 28.701C24.3375 27.6911 23.6063 26.4288 22.4424 26.4288H19.4948L17.3473 22.737L17.344 22.7305Z" />
<path id="Union" fill-rule="evenodd" clip-rule="evenodd" d="M16.0408 33.3862L16.6655 34.4452V34.4485C13.5114 35.678 10.8753 35.6354 8.88187 35.3108L2.88843 25.0059L13.7321 31.2606C14.0967 31.1763 15.1394 30.9493 16.5836 30.7534L20.7344 33.1665C20.4426 33.3075 20.118 33.3862 19.7836 33.3862H16.0408Z"  fill-opacity="0.6"/>
<path id="Subtract" fill-rule="evenodd" clip-rule="evenodd" d="M2.88843 25.0052V25.002L3.40565 25.3036L2.88843 25.0052ZM10.9408 35.5017C7.8044 35.4651 5.73761 34.438 5.73761 34.438L2.88843 35.1298V25.0052L8.88187 35.3101C9.50638 35.4118 10.194 35.4858 10.9408 35.5017Z" />
<path id="Vector_4" d="M22.1999 35.252C22.1277 35.252 22.0556 35.252 21.9835 35.252C20.1146 35.252 18.2523 34.8848 16.5999 34.193L16.4982 34.1504L16.3966 34.193C14.7441 34.8848 12.8851 35.252 11.013 35.252C9.14084 35.252 7.28183 34.8848 5.62937 34.193L5.52773 34.1504L5.42608 34.193C3.8687 34.8455 2.12117 35.2094 0.357232 35.2455L0.0424805 35.7733C1.94412 35.7733 3.83593 35.4094 5.52773 34.7176C7.21626 35.4094 9.11133 35.7733 11.013 35.7733C12.9146 35.7733 14.8064 35.4094 16.4982 34.7176C18.1704 35.4028 20.0392 35.7668 21.9212 35.7733L22.2326 35.2455H22.1999V35.252Z" />
<path id="Union_2" fill-rule="evenodd" clip-rule="evenodd" d="M12.9671 15.1692V0.228516C4.83268 14.9597 12.9671 28.6974 12.9671 28.6974V16.2127L19.0797 26.7237L19.5332 26.46L12.9671 15.1692Z"  fill-opacity="0.6"/>
<path id="Subtract_2" fill-rule="evenodd" clip-rule="evenodd" d="M12.967 0.228549V0.228516C12.967 0.228516 2.88501 4.13671 2.88501 22.8711L12.967 28.6974V28.6973C12.953 28.6737 4.8396 14.947 12.967 0.228549Z" />
</g>
</g>
</svg>
