<svg class="sport-icon" width="25" height="30" viewBox="0 0 25 30" fill="none" xmlns="http://www.w3.org/2000/svg">
<g id="Shooting">
<g id="Group">
<path id="Vector" d="M10.1557 8.52319H14.4442L17.0541 4.01172H15.8967C15.8967 4.01172 14.5163 5.39205 13.759 6.69696C13.759 6.69696 12.4082 6.4609 10.9983 6.4609C9.58848 6.4609 10.1524 8.52319 10.1524 8.52319H10.1557Z"  fill-opacity="0.6"/>
<path id="Vector_2" d="M8.6574 3.94029C9.74386 3.94029 10.6246 3.05953 10.6246 1.97307C10.6246 0.886611 9.74386 0.00585938 8.6574 0.00585938C7.57094 0.00585938 6.69019 0.886611 6.69019 1.97307C6.69019 3.05953 7.57094 3.94029 8.6574 3.94029Z" />
<path id="Vector_3" d="M10.4279 12.2285V29.3892H9.22131C9.22131 29.3892 7.4541 22.6121 7.4541 15.9892L10.4279 12.2285Z"  fill-opacity="0.6"/>
<path id="Vector_4" d="M10.4278 6.79968C10.4278 5.58001 9.43767 4.58984 8.218 4.58984H5.69013C4.65735 4.58984 4.02784 5.72427 4.57538 6.60296L4.91964 7.1505C5.34915 7.8423 5.69997 8.57673 5.96226 9.33738L10.4311 11.9177V6.7964L10.4278 6.79968Z"  fill-opacity="0.6"/>
<path id="Vector_5" d="M4.7262 7.22786L9.56882 10.0147L12.7262 4.5918H5.42456C3.97538 4.5918 3.46718 6.51311 4.7262 7.22786Z" />
<path id="Vector_6" d="M24.4016 3.51758H13.2639L10.4934 5.13069L11.6442 6.052L15.2147 4.04217H24.4016V3.51758Z" />
</g>
<path id="Subtract" d="M5.96312 9.33789C6.35358 10.4676 6.55579 11.6594 6.55579 12.8653V13.1801C2.11972 20.3342 0.2771 29.3899 0.2771 29.3899H1.4148L9.68366 15.1243C10.1722 14.2391 10.4279 13.2424 10.4279 12.2292V11.9159L5.96312 9.33789Z" />
</g>
</svg>
