<svg class="sport-icon" width="17" height="30" viewBox="0 0 17 30" fill="none" xmlns="http://www.w3.org/2000/svg">
<g id="Skateboarding">
<g id="Group">
<path id="Vector" d="M6.12621 19.6796L6.86391 19.2468C8.72949 18.1517 9.87701 16.1484 9.87701 13.9812L9.74918 12.1156L7.7 8.42383L4.23768 13.5156L4.29668 15.6468L3.3262 17.5156C3.04751 18.0501 3.05079 18.6861 3.3262 19.2206L6.85407 21.2566C6.63112 20.732 6.38851 20.1943 6.13277 19.6796H6.12621Z"  fill-opacity="0.6"/>
<path id="Vector_2" d="M3.323 19.2188C3.33611 19.245 3.34927 19.2679 3.36238 19.2942L7.50332 26.4548L8.264 25.1335C8.264 25.1335 7.70333 23.2712 6.85087 21.2581L3.323 19.222V19.2188Z" />
<path id="Vector_3" d="M7.00178 29.0573L6.49365 28.7589L7.72644 28.0376C8.09038 27.8343 8.4149 27.513 8.64113 27.1228L14.7165 16.6343C14.9559 16.2245 15.0838 15.7556 15.0838 15.2802V14.0605L15.6083 14.3327V15.2802C15.6083 15.8474 15.4576 16.4081 15.169 16.8966L9.09363 27.3851C8.84117 27.8146 8.42148 28.2343 8.00836 28.4737L6.99858 29.0507L7.00178 29.0573Z" />
<path id="Vector_4" d="M2.46404 8.90318C3.5505 8.90318 4.43125 8.02242 4.43125 6.93596C4.43125 5.8495 3.5505 4.96875 2.46404 4.96875C1.37758 4.96875 0.496826 5.8495 0.496826 6.93596C0.496826 8.02242 1.37758 8.90318 2.46404 8.90318Z" />
<path id="Vector_5" d="M8.38215 11.6471L12.3199 18.4799L13.4116 17.87C13.4116 17.87 12.6739 14.0405 10.7985 10.3323C10.4477 9.63724 9.58866 9.37822 8.90669 9.75527C8.23128 10.129 7.99527 10.9848 8.38543 11.6504L8.38215 11.6471Z" />
<path id="Vector_6" d="M4.87713 13.867C7.65418 15.7326 12.6411 20.3621 12.6411 20.3621L12.205 21.2637L3.44111 16.2113C2.06734 15.4244 1.63456 13.7063 2.38538 12.3129L4.90667 7.93585C5.47716 6.89978 6.31976 6.04077 7.33943 5.44732L15.6739 0.621094V1.7588C15.6739 1.7588 12.4607 5.16536 8.97549 7.47355C8.54271 7.76208 8.13615 8.13585 7.9132 8.59159L4.88042 13.867H4.87713Z" />
<path id="Vector_7" d="M15.6574 19.3349C16.0196 19.3349 16.3132 19.0413 16.3132 18.6792C16.3132 18.317 16.0196 18.0234 15.6574 18.0234C15.2953 18.0234 15.0017 18.317 15.0017 18.6792C15.0017 19.0413 15.2953 19.3349 15.6574 19.3349Z" />
<path id="Vector_8" d="M10.6279 27.958C10.9901 27.958 11.2836 27.6644 11.2836 27.3022C11.2836 26.9401 10.9901 26.6465 10.6279 26.6465C10.2658 26.6465 9.97217 26.9401 9.97217 27.3022C9.97217 27.6644 10.2658 27.958 10.6279 27.958Z" />
</g>
</g>
</svg>
