<svg class="sport-icon" width="29" height="29" viewBox="0 0 29 29" fill="none" xmlns="http://www.w3.org/2000/svg">
<g id="Football">
<g id="Group">
<path id="Vector" d="M16.9194 9.30859V12.5545C16.9194 13.7938 17.2145 15.0168 17.8244 16.0955L19.6408 19.2496C19.9687 19.8266 19.9654 20.5315 19.6342 21.1053L15.4342 28.4004H14.103C14.103 28.4004 14.2113 24.4102 17.0047 20.4627C17.0047 20.4627 14.149 17.6725 13.2539 15.4693L16.9162 9.31188L16.9194 9.30859Z"  fill-opacity="0.6"/>
<path id="Vector_2" d="M14.4146 4.63086L15.4473 7.24725C21.5096 7.24725 27.8244 5.78824 27.8244 5.78824L28.4867 4.63086H14.4146Z"  fill-opacity="0.6"/>
<path id="Vector_3" d="M9.57195 28.4012C10.6584 28.4012 11.5392 27.5205 11.5392 26.434C11.5392 25.3475 10.6584 24.4668 9.57195 24.4668C8.48549 24.4668 7.60474 25.3475 7.60474 26.434C7.60474 27.5205 8.48549 28.4012 9.57195 28.4012Z" />
<path id="Vector_4" d="M12.2113 4.4171C13.454 4.54169 14.4933 3.50235 14.3687 2.25972C14.2769 1.33841 13.5327 0.594145 12.6114 0.502342C11.3688 0.377752 10.3294 1.4171 10.454 2.65972C10.5458 3.58104 11.29 4.32529 12.2113 4.4171Z" />
<path id="Vector_5" d="M1.34905 11.8508L2.35234 12.4344C2.35234 12.4344 7.11628 11.2344 11.6966 8.92295L12.2179 9.85081C12.7687 10.8311 12.6768 12.0377 12.0014 12.9361C11.2113 13.9852 10.1523 15.8508 9.13593 19.0705C4.05396 19.0705 1.13596 20.3393 1.13596 20.3393L0.499756 21.4475L9.66055 21.4311C10.5687 21.4311 11.4048 20.9393 11.8474 20.1459L15.9424 13.0934C16.585 11.9393 16.9228 10.6377 16.9228 9.31638V7.09016C16.9228 5.20491 14.8835 4.03114 13.254 4.97212L1.35561 11.8574L1.34905 11.8508Z" />
</g>
</g>
</svg>
