<svg class="sport-icon" width="28" height="32" viewBox="0 0 28 32" fill="none" xmlns="http://www.w3.org/2000/svg">
<g id="Sport Climbing">
<g id="Group">
<path id="Vector" d="M4.87036 13.6351L10.713 3.50391L11.2311 4.67768C11.2311 4.67768 10.1851 9.18587 8.09334 12.5662C6.40809 15.2875 4.87036 13.6351 4.87036 13.6351Z"  fill-opacity="0.6"/>
<path id="Vector_2" d="M2.86394 13.8543C3.9504 13.8543 4.83115 12.9736 4.83115 11.8871C4.83115 10.8007 3.9504 9.91992 2.86394 9.91992C1.77748 9.91992 0.896729 10.8007 0.896729 11.8871C0.896729 12.9736 1.77748 13.8543 2.86394 13.8543Z" />
<path id="Union" fill-rule="evenodd" clip-rule="evenodd" d="M10.3589 16.7616V12.8418C9.47362 13.3959 8.32606 14.0516 6.97852 14.691L9.54352 19.1194L9.62116 21.9205L11.0048 21.4352V21.4385L13.5457 17.0811C15.7031 18.1074 18.854 18.9303 18.854 18.9303L18.7785 18.3008L18.8015 17.8221L12.9425 14.4254C12.9425 14.4254 11.6172 15.1561 10.3589 16.7616Z"  fill-opacity="0.6"/>
<path id="Vector_3" d="M24.7197 27.3068L17.0345 22.8838C13.4181 20.9658 10.3591 20.5264 10.3591 20.5264L10.1197 20.1133C9.03447 18.2379 8.46068 16.1068 8.46068 13.9396C9.18199 13.5527 9.81807 13.1756 10.3591 12.8379C11.6181 12.051 12.3427 11.474 12.3427 11.474C12.3427 7.37561 11.6444 5.10676 11.6444 5.10676L10.5492 3.5625V10.0445L5.68364 12.8576C4.52626 13.5232 4.12955 14.9986 4.79513 16.1527L8.43779 22.4805C9.15254 23.7232 10.4771 24.4904 11.9131 24.4904H16.159C19.4607 27.3887 24.1197 27.9559 24.1197 27.9559L24.7656 27.5887L24.7197 27.3002V27.3068Z" />
<path id="Vector_4" d="M27.3558 31.4017L22.1722 22.4673L18.9066 20.5755V17.146L9.34598 0.582031H8.74268L18.382 17.2837V20.8738L21.7853 22.8476L26.7525 31.4017H27.3558Z" />
</g>
</g>
</svg>
