<svg class="sport-icon" width="31" height="24" viewBox="0 0 31 24" fill="none" xmlns="http://www.w3.org/2000/svg">
<g id="Surfing">
<g id="1">
<path id="Vector" d="M18.3885 8.9794L16.3983 12.4253L13.3655 11.7204L16.9852 8.31055L18.3885 8.9794Z"  fill-opacity="0.6"/>
<path id="Vector_2" d="M20.0903 4.17857C21.1767 4.17857 22.0575 3.29782 22.0575 2.21135C22.0575 1.12489 21.1767 0.244141 20.0903 0.244141C19.0038 0.244141 18.123 1.12489 18.123 2.21135C18.123 3.29782 19.0038 4.17857 20.0903 4.17857Z" />
<path id="Vector_3" d="M18.0704 4.06693C17.4704 3.72267 16.7917 3.53906 16.0999 3.53906H5.04419L5.46387 4.27021C5.46387 4.27021 9.18186 5.81447 16.1556 5.81447L17.5491 4.67349L18.0245 5.92923L18.8409 4.51283L18.0671 4.06693H18.0704Z" />
<path id="Vector_4" d="M18.8408 4.51367L18.0244 5.93007L18.3818 6.87761C24.4212 10.3661 28.4375 10.8743 28.4375 10.8743L29.1425 10.4612L18.8408 4.51367Z"  fill-opacity="0.6"/>
<path id="Vector_5" d="M20.6837 14.6238C13.228 18.8173 7.89684 9.75172 15.3723 5.34188L17.3952 4.2009C17.6804 4.04024 18.028 4.04352 18.3099 4.20417L20.3919 5.40745C21.4771 6.03368 21.4739 7.60417 20.3821 8.22712L14.5689 11.5353C17.2214 11.4402 20.3755 11.3714 22.005 11.3419C22.6116 11.332 23.1066 11.8173 23.1066 12.4238L23.1001 20.532L22.3099 20.5156C22.3099 20.5156 20.9394 17.5517 20.6771 14.6238H20.6837Z" />
<path id="Union" fill-rule="evenodd" clip-rule="evenodd" d="M16.5151 22.1531C10.702 22.1501 5.66941 18.8165 3.22134 13.9564C2.1361 15.2285 1.37871 16.717 0.998384 18.317L0.62793 17.6744C1.09023 16.0875 1.90331 14.6482 2.97216 13.4449L2.97274 13.4443C3.10042 13.3035 3.22808 13.1627 3.3623 13.0285C3.43771 13.2023 3.51639 13.3728 3.59836 13.54C4.29672 14.976 5.22465 16.281 6.36563 17.4219C7.68695 18.74 9.22135 19.776 10.9328 20.5006C12.4137 21.1259 13.9725 21.4942 15.5767 21.598C15.4174 21.3131 15.3747 20.9938 15.4334 20.6956C15.4991 20.0925 15.855 17.2618 16.9558 14.8941L20.1558 14.2023L17.3414 19.0674L29.2869 12.1728C29.8475 11.8515 30.5033 12.422 30.2541 13.0187C28.5645 17.0506 25.1523 20.1796 20.9377 21.4869C19.5543 21.917 18.0852 22.1493 16.5609 22.153C16.5471 22.1531 16.5334 22.1531 16.5197 22.1531C16.5182 22.1531 16.5166 22.1531 16.5151 22.1531Z"  fill-opacity="0.6"/>
<path id="Vector_6" d="M17.8411 21.1553V23.8176C20.0575 22.4832 20.4509 19.6504 20.4509 19.6504L17.8411 21.1553Z" />
</g>
</g>
</svg>
