<svg class="sport-icon" width="36" height="17" viewBox="0 0 36 17" fill="none" xmlns="http://www.w3.org/2000/svg">
<g id="Swimming">
<g id="Group">
<path id="Vector" d="M7.68358 9.92857L0.686035 5.88922L1.80407 5.24414C5.47538 6.30971 9.2344 8.34332 9.2344 8.34332L7.68358 9.92857Z"  fill-opacity="0.6"/>
<path id="Vector_2" d="M24.7959 4.16992L24.9582 6.77894C24.9582 6.77894 30.191 9.38714 34.3779 10.5429L35.1107 10.1117L24.7967 4.16992H24.7959Z"  fill-opacity="0.6"/>
<path id="Vector_3" d="M26.3949 4.02036C27.4814 4.02036 28.3622 3.13961 28.3622 2.05315C28.3622 0.966689 27.4814 0.0859375 26.3949 0.0859375C25.3085 0.0859375 24.4277 0.966689 24.4277 2.05315C24.4277 3.13961 25.3085 4.02036 26.3949 4.02036Z" />
<path id="Vector_4" d="M18.4999 0.530116C15.8581 1.8252 13.7073 4.0711 13.7073 4.0711L14.6319 4.59405L18.1458 2.5629L20.7589 4.05717L19.8106 4.62438C18.9204 5.15635 17.9015 5.43749 16.8647 5.43749C12.186 4.23585 10.2688 7.30389 7.38023 9.73258C3.18761 11.2924 0.684326 14.9695 0.684326 14.9695V16.0842L13.6876 8.63258H20.3671C22.1327 8.63258 23.8048 7.9752 25.0835 6.83176C25.922 6.08257 25.772 4.72848 24.7966 4.16864L18.5007 0.529297L18.4999 0.530116Z" />
</g>
</g>
</svg>
