<svg class="sport-icon" width="24" height="22" viewBox="0 0 24 22" fill="none" xmlns="http://www.w3.org/2000/svg">
<g id="Frame" clip-path="url(#clip0_6267_49682)">
<g id="Background">
<path id="Vector" d="M13.3595 5.93534L15.0655 8.8806H20.5781L21.1366 7.89699C21.1366 7.89699 18.3664 7.04676 16.0686 6.93006L16.063 6.91894C16.5465 6.07426 17.0327 5.2268 17.4078 4.59607C16.9494 4.19318 16.3853 3.88477 15.6462 3.88477C13.9346 3.88477 12.3509 4.79613 11.4923 6.2771L6.37699 15.0823C6.37699 15.0823 2.85101 16.9578 0.919922 19.7725L0.933815 20.9034L8.58315 16.4772C10.1586 15.4713 12.0091 13.3152 13.3595 11.3952V5.93256V5.93534Z" />
<path id="Vector_2" d="M19.8141 15.7105C19.4668 15.1381 18.9778 14.6658 18.3943 14.3379L13.3512 11.4121C12.7483 12.2707 12.0425 13.1737 11.3118 13.9989C13.9875 15.4549 17.344 16.1606 17.344 16.1606C18.586 19.192 22.0842 21.8178 22.0842 21.8178H23.329L19.8169 15.7105H19.8141Z"  fill-opacity="0.6"/>
<path id="Vector_3" d="M17.9858 3.93247C19.0722 3.93247 19.953 3.05172 19.953 1.96526C19.953 0.878798 19.0722 -0.00195312 17.9858 -0.00195312C16.8993 -0.00195312 16.0186 0.878798 16.0186 1.96526C16.0186 3.05172 16.8993 3.93247 17.9858 3.93247Z" />
<path id="Vector_4" d="M20.6449 4.86837C20.9165 4.86837 21.1367 4.64818 21.1367 4.37657C21.1367 4.10495 20.9165 3.88477 20.6449 3.88477C20.3733 3.88477 20.1531 4.10495 20.1531 4.37657C20.1531 4.64818 20.3733 4.86837 20.6449 4.86837Z" />
<path id="Vector_5" d="M17.405 4.5957C17.3939 4.61237 17.3856 4.63182 17.3745 4.6485C17.0049 5.27367 16.5326 6.0989 16.063 6.91857L16.0685 6.92968C16.7382 6.96303 17.4467 7.06028 18.1163 7.17975C18.4275 6.19337 18.0858 5.24866 17.4356 4.62627L17.405 4.5957Z"  fill-opacity="0.6"/>
<path id="Vector_6" d="M22.5204 10.5591C21.8924 10.1978 21.1117 10.3507 20.6615 10.8841L17.2245 8.88914L17.2161 8.88081H15.0683L13.3623 5.93555V11.401C13.7319 10.8758 14.0653 10.3673 14.3431 9.90609C14.3876 9.83107 14.4432 9.7366 14.5043 9.63657C14.5098 9.63935 14.5126 9.64213 14.5182 9.64491C16.2353 10.6341 19.8974 11.651 19.8974 11.651L20.3865 11.3648C20.1642 12.0178 20.4254 12.7597 21.045 13.1153C21.7507 13.5238 22.6538 13.282 23.0594 12.5763C23.4679 11.8705 23.2261 10.9675 22.5204 10.5618V10.5591Z"  fill-opacity="0.6"/>
</g>
</g>
<defs>
<clipPath id="clip0_6267_49682">
<rect width="22.4062" height="21.82" fill="white" transform="translate(0.919922 -0.00195312)"/>
</clipPath>
</defs>
</svg>
