<svg class="sport-icon" width="29" height="32" viewBox="0 0 29 32" fill="none" xmlns="http://www.w3.org/2000/svg">
<g id="Taekwondo">
<g id="Group">
<path id="Vector" d="M5.66409 9.87305L3.17882 14.1845L1.15261 10.6894L-0.00805664 10.037C0.0312876 14.0206 2.86736 17.5091 2.86736 17.5091C4.89687 16.0698 6.84113 13.3091 6.84113 13.3091L5.66733 9.87305H5.66409Z"  fill-opacity="0.6"/>
<path id="Vector_2" d="M11.3525 22.9746V31.6631H12.3722C13.1886 29.4205 13.7525 26.9451 14.1329 24.5812L11.3525 22.9779V22.9746Z" />
<path id="Vector_3" d="M14.8838 14.9559V14.5723L11.356 16.5952V22.9788L14.1363 24.5821C14.8215 20.3592 14.9297 16.4969 14.8838 14.9559Z"  fill-opacity="0.6"/>
<path id="Vector_4" d="M13.0543 11.8477L10.3953 7.26739C10.3953 7.26739 16.0444 4.13624 18.1461 1.11985V0.0214844L9.54281 4.98542C8.48707 5.59198 7.61166 6.47066 7.00511 7.52968L5.66413 9.87067C5.07725 11.0674 5.50674 12.5297 6.67396 13.2117L6.83789 13.3067L10.4707 15.3953C11.0149 15.7067 11.3494 16.2871 11.3494 16.9166L15.1625 14.733C17.2805 13.592 24.1199 9.28706 28.392 4.22476V2.98869L13.0477 11.8477H13.0543Z" />
<path id="Vector_5" d="M3.85759 9.71958C4.94406 9.71958 5.82481 8.83883 5.82481 7.75237C5.82481 6.66591 4.94406 5.78516 3.85759 5.78516C2.77113 5.78516 1.89038 6.66591 1.89038 7.75237C1.89038 8.83883 2.77113 9.71958 3.85759 9.71958Z" />
</g>
</g>
</svg>
