<svg class="sport-icon" width="27" height="29" viewBox="0 0 27 29" fill="none" xmlns="http://www.w3.org/2000/svg">
<g id="Artwork" clip-path="url(#clip0_6267_49708)">
<g id="Group">
<path id="Vector" d="M19.4362 21.4585L15.1906 14.2148L13.1233 17.5852L12.9622 17.8436L12.9539 17.8492C14.1625 19.8442 15.7574 21.967 17.7024 23.4341L26.3687 28.416V27.1934C24.2153 24.3343 19.4362 21.4557 19.4362 21.4557V21.4585Z" />
<path id="Vector_2" d="M15.7851 7.13169C16.8716 7.13169 17.7523 6.25094 17.7523 5.16448C17.7523 4.07802 16.8716 3.19727 15.7851 3.19727C14.6986 3.19727 13.8179 4.07802 13.8179 5.16448C13.8179 6.25094 14.6986 7.13169 15.7851 7.13169Z" />
<path id="Vector_3" d="M5.33496 5.35352L5.51557 6.45382C5.51557 6.45382 6.64366 8.16541 8.8026 9.45465C8.8026 9.45465 9.50557 9.62137 10.5948 9.76307L9.44166 7.7903L5.33496 5.35352Z"  fill-opacity="0.6"/>
<path id="Vector_4" d="M11.4868 11.0252L16.6604 7.96875C17.5829 8.41332 18.0191 9.59976 17.4245 10.5695L17.3884 10.6278C14.8544 11.9476 11.7452 12.8562 11.7452 12.8562C9.34451 12.7895 6.11305 12.0921 6.11305 12.0921L5.50732 11.0252H11.484H11.4868Z" />
<path id="Vector_5" d="M4.63754 1.18563C4.3708 1.71633 4.22632 2.41652 4.22632 3.1584C4.22632 3.90027 4.39025 4.59213 4.63754 5.13117C4.74035 5.35345 4.86261 5.52016 4.98486 5.64798C5.33218 6.00641 5.51279 6.49543 5.51279 6.99557V11.0272H6.03793V7.02892C6.03793 6.51766 6.2491 6.0342 6.60198 5.66187C6.73535 5.52016 6.85761 5.34234 6.96319 5.13117C7.22993 4.60046 7.37442 3.90027 7.37442 3.1584C7.37442 2.41652 7.22716 1.71633 6.96319 1.18563C6.66589 0.596575 6.25466 0.271484 5.79898 0.271484C5.3433 0.271484 4.93207 0.596575 4.63754 1.18563ZM5.79898 0.79663C5.87678 0.79663 5.95458 0.818859 6.03238 0.866094C6.19631 0.960565 6.35747 1.15228 6.49084 1.4218C6.72146 1.88026 6.84649 2.49988 6.84649 3.1584C6.84649 3.81969 6.71868 4.43653 6.49084 4.89499C6.29356 5.29232 6.04071 5.51739 5.79898 5.51739C5.55724 5.51739 5.3044 5.28954 5.10712 4.89499C4.8765 4.43653 4.75147 3.81691 4.75147 3.1584C4.75147 2.4971 4.87928 1.88026 5.10712 1.4218C5.3044 1.02447 5.55724 0.799409 5.79898 0.799409V0.79663Z" />
<path id="Vector_6" d="M17.3911 10.625L13.1233 17.5853L12.9621 17.8437L12.951 17.852L6.88542 21.4864C5.10992 24.9456 1.5506 28.4077 1.5506 28.4077H0.155762L4.25691 21.2974C4.51809 20.8445 4.82373 20.4194 5.17383 20.0276C5.32387 19.8609 5.49892 19.6664 5.70175 19.4525C6.79095 18.2938 9.45836 15.9376 11.3478 14.8317C11.0838 14.1843 10.9477 13.498 10.9365 12.8145C11.2144 12.8339 11.4867 12.8478 11.7479 12.8562C11.7479 12.8562 14.8571 11.9476 17.3911 10.625Z"  fill-opacity="0.6"/>
<g id="Group_2">
<path id="Vector_7" d="M9.05261 9.50721C9.03594 9.50443 9.01926 9.50165 9.00537 9.49609C9.01926 9.49887 9.03594 9.50165 9.05261 9.50721Z" />
<path id="Vector_8" d="M9.49152 9.59007C9.46652 9.58451 9.43873 9.58173 9.4165 9.57617C9.44151 9.58173 9.46652 9.58451 9.49152 9.59007Z" />
<path id="Vector_9" d="M9.28879 9.55491C9.26379 9.54935 9.24156 9.54657 9.21655 9.54102C9.23878 9.54657 9.26379 9.54935 9.28879 9.55491Z" />
<path id="Vector_10" d="M9.16376 9.52952C9.14153 9.52396 9.1193 9.52118 9.09985 9.51562C9.1193 9.5184 9.14153 9.52396 9.16376 9.52952Z" />
<path id="Vector_11" d="M8.86637 9.46845C8.86637 9.46845 8.85248 9.46567 8.84692 9.46289C8.85248 9.46289 8.85804 9.46289 8.86637 9.46845Z" />
<path id="Vector_12" d="M8.93871 9.48295C8.93871 9.48295 8.9137 9.47739 8.90259 9.47461C8.9137 9.47461 8.92482 9.48017 8.93871 9.48295Z" />
<path id="Vector_13" d="M10.567 9.75803C10.5308 9.75248 10.4919 9.74692 10.4558 9.74414C10.4919 9.7497 10.5281 9.75526 10.567 9.75803Z" />
<path id="Vector_14" d="M15.8684 7.78711H9.44165L10.5948 9.75988C10.9282 9.80434 11.2949 9.84324 11.6923 9.87658L11.6534 9.94604C11.1532 10.8352 10.9143 11.8271 10.9337 12.8191L11.7478 12.8552C11.7478 12.8552 14.857 11.9466 17.3911 10.624L17.4272 10.5657C18.1719 9.34865 17.2966 7.78711 15.8684 7.78711Z" />
<path id="Vector_15" d="M10.3363 9.72288C10.3002 9.71732 10.2668 9.71176 10.2307 9.70898C10.2641 9.71454 10.3002 9.7201 10.3363 9.72288Z" />
</g>
</g>
<path id="Vector_16" d="M25.385 17.2953C25.9282 17.2953 26.3686 16.855 26.3686 16.3117C26.3686 15.7685 25.9282 15.3281 25.385 15.3281C24.8417 15.3281 24.4014 15.7685 24.4014 16.3117C24.4014 16.855 24.8417 17.2953 25.385 17.2953Z" />
</g>
<defs>
<clipPath id="clip0_6267_49708">
<rect width="26.2156" height="28.1467" fill="white" transform="translate(0.155762 0.271484)"/>
</clipPath>
</defs>
</svg>
