<svg class="sport-icon" width="28" height="19" viewBox="0 0 28 19" fill="none" xmlns="http://www.w3.org/2000/svg">
<g id="Track &#38; Field">
<g id="Group">
<path id="Vector" d="M11.9031 8.16992C8.55223 10.0486 6.24731 13.1175 6.24731 13.1175V15.2158L12.6376 11.547C12.6376 11.547 12.4408 9.14697 11.9031 8.16992Z"  fill-opacity="0.6"/>
<path id="Vector_2" d="M22.8933 7.4769L20.6539 3.61133L19.4409 7.16543C20.9229 9.11297 22.5819 9.87034 22.5819 9.87034C25.4901 8.38838 27.1918 6.15231 27.1918 6.15231V5.01133L22.8967 7.48018L22.8933 7.4769Z"  fill-opacity="0.6"/>
<path id="Vector_3" d="M16.526 3.02734L13.8801 7.50275L19.2309 4.56833L16.526 3.02734Z"  fill-opacity="0.6"/>
<path id="Vector_4" d="M20.6538 3.60841L20.9457 4.11005C21.6408 5.3035 21.2243 6.83792 20.0178 7.51333L15.2113 10.2904C15.2113 10.2904 16.7457 11.4183 18.2113 13.6117C18.6998 14.3428 18.1784 15.3232 17.2997 15.3232H8.38501L10.1294 14.3199C10.1294 14.3199 12.0704 13.6969 14.6441 13.356L11.9162 11.8019C10.503 11.0051 10.4965 8.97235 11.903 8.16579L18.5621 4.333L14.8375 2.18874L10.172 4.89366V3.89038C10.172 3.89038 12.3752 1.36907 14.8178 0.378906C14.8178 0.378906 19.0112 0.857595 20.6538 3.60514" />
<path id="Vector_5" d="M-0.00830078 17.5434V18.8254L6.25066 15.2155V13.1172C2.37198 14.2254 -0.00830078 17.5434 -0.00830078 17.5434Z" />
<path id="Vector_6" d="M23.2966 4.93247C24.383 4.93247 25.2638 4.05172 25.2638 2.96526C25.2638 1.8788 24.383 0.998047 23.2966 0.998047C22.2101 0.998047 21.3293 1.8788 21.3293 2.96526C21.3293 4.05172 22.2101 4.93247 23.2966 4.93247Z" />
</g>
</g>
</svg>
