<svg class="sport-icon" width="18" height="32" viewBox="0 0 18 32" fill="none" xmlns="http://www.w3.org/2000/svg">
<g id="Trampoline">
<g id="Group">
<path id="Vector" d="M3.85076 8.76255C4.93722 8.76255 5.81797 7.8818 5.81797 6.79534C5.81797 5.70888 4.93722 4.82812 3.85076 4.82812C2.7643 4.82812 1.88354 5.70888 1.88354 6.79534C1.88354 7.8818 2.7643 8.76255 3.85076 8.76255Z" />
<path id="Vector_2" d="M3.49344 9.4082H15.2934L14.8673 10.1426C14.8673 10.1426 9.8246 11.6836 2.85083 11.6836L3.49672 9.4082H3.49344Z" />
<path id="Subtract" d="M10.6629 11.0522L10.2869 11.7065L13.2148 13.4114C13.4943 12.3548 13.6642 11.3221 13.7083 10.4473C12.9862 10.6202 11.9494 10.8432 10.6629 11.0522Z"  fill-opacity="0.6"/>
<path id="Subtract_2" fill-rule="evenodd" clip-rule="evenodd" d="M13.7196 10.0076C13.7196 13.4044 11.5065 19.906 8.21795 19.906V19.9093L7.64746 16.306L10.2901 11.708L13.2147 13.4109C13.4942 12.3544 13.6641 11.3216 13.7081 10.4468C12.987 10.6195 11.952 10.8422 10.6677 11.0509L16.6867 0.578125L17.2376 1.54206C17.2376 1.54206 16.4245 6.03058 13.7196 10.0076Z" />
<path id="Subtract_3" d="M2.85152 11.6805L2.84424 11.6831L6.60488 13.847C6.186 13.1214 5.7387 12.3427 5.32495 11.6191C4.53314 11.6598 3.70651 11.6831 2.8508 11.6831L2.85152 11.6805Z"  fill-opacity="0.6"/>
<path id="Subtract_4" fill-rule="evenodd" clip-rule="evenodd" d="M1.18199 11.4967C1.3033 10.3098 2.30332 9.4082 3.49348 9.4082H3.49676H4.08038C5.08694 11.2443 8.26399 16.7098 8.26399 16.7098L8.21812 19.9066C4.31321 19.9066 0.749204 15.7 1.18199 11.4967ZM2.8445 11.6836L2.85178 11.6811L2.85106 11.6836C3.70677 11.6836 4.5334 11.6604 5.32521 11.6197C5.73896 12.3433 6.18625 13.122 6.60514 13.8476L2.8445 11.6836Z" />
<path id="Vector_3" d="M15.3754 31.3877C11.2573 29.6861 4.55903 29.6861 0.441002 31.3877L0.240967 30.9025C4.4672 29.1549 11.3459 29.1549 15.5754 30.9025L15.3754 31.3877Z"  fill-opacity="0.6"/>
</g>
</g>
</svg>
