<svg class="sport-icon" width="34" height="31" viewBox="0 0 34 31" fill="none" xmlns="http://www.w3.org/2000/svg">
<g id="Triathlon">
<g id="Group">
<path id="Vector" d="M21.0737 19.3091L16.7229 16.7812C16.2934 17.1026 14.8804 18.2075 15.3394 18.614C15.8804 19.0894 19.2475 20.6698 19.2475 20.6698C18.4148 22.0927 17.5459 24.955 17.5459 24.955L18.136 25.9681L21.3753 20.4337C21.6016 20.0403 21.464 19.5386 21.0705 19.3124L21.0737 19.3091Z"  fill-opacity="0.6"/>
<path id="Vector_2" d="M14.3817 27.2699H10.5555C10.2801 27.2699 10.031 27.1257 9.89002 26.8896C9.74904 26.6503 9.74903 26.365 9.88346 26.1224L14.2966 18.4863L14.6376 18.6798L10.2277 26.3158C10.1621 26.4339 10.1621 26.5716 10.2277 26.6896C10.2965 26.8076 10.4179 26.8765 10.5523 26.8765H14.3785V27.2699H14.3817Z"  fill-opacity="0.6"/>
<path id="Vector_3" d="M12.3196 17.6777L12.641 18.2351C13.0443 18.9335 13.9394 19.1728 14.6377 18.7695L15.6476 18.1859C15.8804 18.0515 15.7852 17.6941 15.5163 17.6909L12.3196 17.6777Z"  fill-opacity="0.6"/>
<path id="Vector_4" d="M23.4735 31.0053C21.0866 31.0053 19.1458 29.0644 19.1458 26.6775C19.1458 24.2906 21.0866 22.3496 23.4735 22.3496C25.8604 22.3496 27.8015 24.2906 27.8015 26.6775C27.8015 29.0644 25.8604 31.0053 23.4735 31.0053ZM23.4735 22.7431C21.303 22.7431 19.5391 24.507 19.5391 26.6775C19.5391 28.848 21.303 30.6119 23.4735 30.6119C25.644 30.6119 27.408 28.848 27.408 26.6775C27.408 24.507 25.644 22.7431 23.4735 22.7431Z" />
<path id="Vector_5" d="M10.3492 31.0053C7.96229 31.0053 6.02124 29.0644 6.02124 26.6775C6.02124 24.2906 7.96229 22.3496 10.3492 22.3496C12.7361 22.3496 14.6771 24.2906 14.6771 26.6775C14.6771 29.0644 12.7361 31.0053 10.3492 31.0053ZM10.3492 22.7431C8.17868 22.7431 6.41475 24.507 6.41475 26.6775C6.41475 28.848 8.17868 30.6119 10.3492 30.6119C12.5197 30.6119 14.2836 28.848 14.2836 26.6775C14.2836 24.507 12.5197 22.7431 10.3492 22.7431Z"  fill-opacity="0.6"/>
<path id="Vector_6" d="M25.2966 19.5723H23.89L24.3818 19.9657H25.2966C25.572 19.9657 25.7983 20.1919 25.7983 20.4674C25.7983 20.7428 25.572 20.969 25.2966 20.969H24.4015C23.7753 20.969 23.2671 21.4772 23.2671 22.1034V26.5887L23.6606 26.8149V22.1034C23.6606 21.6936 23.9917 21.3624 24.4015 21.3624H25.2966C25.7884 21.3624 26.1917 20.9624 26.1917 20.4674C26.1917 19.9723 25.7917 19.5723 25.2966 19.5723Z" />
<path id="Vector_7" d="M16.2017 17.306C17.3459 16.6273 19.2639 16.2666 20.6148 16.2535L20.6311 14.7617L16.2049 17.306H16.2017Z"  fill-opacity="0.6"/>
<path id="Subtract" fill-rule="evenodd" clip-rule="evenodd" d="M22.3885 14.5264L22.3557 17.9493L25.1949 19.5952L24.7293 19.9624H24.0113C24.0113 19.9624 22.231 19.7165 20.6081 18.6149V16.2543C20.6103 16.2543 20.6124 16.2542 20.6146 16.2542L20.6309 14.7624L16.4788 17.1491C16.3798 17.1986 16.285 17.25 16.195 17.3034C17.077 18.5132 17.5851 20.4608 17.7556 21.3395C17.8179 21.6673 17.7622 22.005 17.595 22.2903L14.5819 27.605L14.0573 26.6083C14.795 22.9788 15.7786 21.7362 15.7786 21.7362L13.1885 17.2641C12.6016 16.2542 12.972 14.9526 14.0113 14.4149C15.1884 13.805 17.4342 12.8903 20.1129 12.5264C21.3228 12.3624 22.3983 13.3067 22.3885 14.5264Z" />
<path id="Vector_8" d="M23.8835 13.627L25.4508 14.5253C25.641 14.2761 25.7558 13.9647 25.7558 13.627H23.8869H23.8835Z"  fill-opacity="0.6"/>
<path id="Subtract_2" fill-rule="evenodd" clip-rule="evenodd" d="M24.2771 11.7812C23.4377 11.7812 22.7295 12.3419 22.5066 13.1124L22.8016 13.6272C22.8016 14.442 23.4622 15.1026 24.2771 15.1026C24.7544 15.1026 25.1789 14.8758 25.4485 14.5242L23.8835 13.6272H23.8869H25.7525H25.7558L26.8672 13.6272C26.8672 13.6272 26.0836 11.7845 24.2771 11.7845V11.7812Z" />
<path id="Vector_9" d="M4.29666 10.0117C2.82453 12.4871 2.47705 15.3461 2.47705 15.3461L3.2639 16.7101L6.03766 11.933C6.03766 11.933 5.01141 10.4478 4.29666 10.015V10.0117Z"  fill-opacity="0.6"/>
<path id="Vector_10" d="M11.1754 5.43772L8.27051 3.76559L8.81466 6.52952C10.5097 7.23772 11.8671 7.10985 11.8671 7.10985C13.1983 5.05739 13.4671 2.96559 13.4671 2.96559L13.0377 2.22461L11.172 5.43772H11.1754Z"  fill-opacity="0.6"/>
<path id="Vector_11" d="M5.36873 4.93499L5.32935 8.83663L7.70319 4.92188L5.36873 4.93499Z"  fill-opacity="0.6"/>
<path id="Vector_12" d="M8.27047 3.76438L8.64748 3.98078C9.54585 4.49553 9.85078 5.64963 9.32291 6.54143L7.24091 10.148C7.24091 10.148 8.6605 10.3054 10.4343 11.1808C11.0244 11.4726 11.0574 12.3054 10.4836 12.6332L4.69337 15.9742L5.45076 14.6693C5.45076 14.6693 6.48022 13.5382 8.0212 12.3513L5.66721 12.3644C4.45081 12.3775 3.68354 11.0595 4.29666 10.007L7.1852 5.02013H3.96223L1.94586 8.52832L1.56885 7.87586C1.56885 7.87586 2.05407 5.41029 3.27047 3.85291C3.27047 3.85291 6.17539 2.59062 8.27047 3.76111" />
<path id="Vector_13" d="M0.0737305 20.5648L0.555608 21.3975L3.26709 16.7057L2.48024 15.3418C0.375319 17.5156 0.0769323 20.5648 0.0769323 20.5648H0.0737305Z" />
<path id="Vector_14" d="M9.74592 3.83363C10.5608 3.83363 11.2213 3.17307 11.2213 2.35822C11.2213 1.54338 10.5608 0.882812 9.74592 0.882812C8.93107 0.882812 8.27051 1.54338 8.27051 2.35822C8.27051 3.17307 8.93107 3.83363 9.74592 3.83363Z" />
<path id="Vector_15" d="M25.4868 3.50977L25.6082 5.46714C25.6082 5.46714 29.5327 7.42453 32.6737 8.2901L33.2246 7.9655L25.4902 3.50977H25.4868Z"  fill-opacity="0.6"/>
<path id="Vector_16" d="M26.6868 3.39809C27.5017 3.39809 28.1622 2.73752 28.1622 1.92268C28.1622 1.10783 27.5017 0.447266 26.6868 0.447266C25.872 0.447266 25.2114 1.10783 25.2114 1.92268C25.2114 2.73752 25.872 3.39809 26.6868 3.39809Z" />
<path id="Vector_17" d="M25.7033 5.50912C26.3328 4.94847 26.218 3.93208 25.4868 3.5124L20.7655 0.78125C18.7852 1.75174 17.1721 3.43699 17.1721 3.43699L17.8672 3.83044L20.5033 2.30585L22.464 3.42715L21.7524 3.85339C21.0835 4.25339 20.3197 4.46322 19.5426 4.46322H18.9885L23.0835 6.78126C24.0639 6.61076 24.972 6.16814 25.7065 5.50912H25.7033Z" />
</g>
</g>
</svg>
