<svg class="sport-icon" width="23" height="34" viewBox="0 0 23 34" fill="none" xmlns="http://www.w3.org/2000/svg">
<g id="Volleyball">
<g id="Group">
<path id="Vector" d="M11.2079 10.9657C12.2944 10.9657 13.1751 10.0849 13.1751 8.99846C13.1751 7.912 12.2944 7.03125 11.2079 7.03125C10.1215 7.03125 9.24072 7.912 9.24072 8.99846C9.24072 10.0849 10.1215 10.9657 11.2079 10.9657Z" />
<path id="Vector_2" d="M20.7653 4.21568C21.8518 4.21568 22.7325 3.33492 22.7325 2.24846C22.7325 1.162 21.8518 0.28125 20.7653 0.28125C19.6788 0.28125 18.7981 1.162 18.7981 2.24846C18.7981 3.33492 19.6788 4.21568 20.7653 4.21568Z" />
<path id="Vector_3" d="M12.4114 11.3212L22.7327 5.37695V6.21958C22.7327 6.21958 20.0573 9.6622 15.0278 12.6884L12.4114 11.3212Z"  fill-opacity="0.6"/>
<path id="Vector_4" d="M15.4997 18.8359V27.6851C15.4997 28.3769 15.1358 29.0163 14.5423 29.3671L7.55542 33.4064V32.0654C7.55542 32.0654 10.1128 29.2458 12.9915 27.531C12.9915 27.531 12.0013 24.4917 12.0013 20.4523L15.4965 18.8392L15.4997 18.8359Z"  fill-opacity="0.6"/>
<path id="Vector_5" d="M10.1719 15.4902H12.267V19.1525L10.1719 15.4902Z"  fill-opacity="0.6"/>
<path id="Subtract" fill-rule="evenodd" clip-rule="evenodd" d="M5.29984 15.8256C7.5982 16.6093 10.1719 15.4912 10.1719 15.4912L10.1753 15.4978L12.2671 19.1601C9.62115 20.9043 7.74573 23.8125 7.74573 23.8125C5.32606 22.5699 1.83753 21.9601 1.83753 21.9601L0.834229 22.5043L6.39823 25.7601C6.99168 26.1043 7.72278 26.1109 8.3195 25.7732L12.6835 23.2847C14.4244 22.2978 15.5032 20.4486 15.5032 18.4453V12.7338C15.5032 11.3142 13.9655 10.4289 12.736 11.1371L7.10312 14.3011V9.35352L6.2375 9.85187C5.24078 12.8158 5.29984 15.8256 5.29984 15.8256ZM10.1719 15.4912H12.2671V19.1535L10.1719 15.4912Z" />
</g>
</g>
</svg>
