<svg class="sport-icon" width="24" height="17" viewBox="0 0 24 17" fill="none" xmlns="http://www.w3.org/2000/svg">
<g id="Water Polo">
<g id="Group">
<path id="Vector" d="M12.3689 11.1312C17.5164 13.7903 22.4705 15.0296 22.4705 15.0296L23.3197 14.4853L14.4574 9.38042C13.605 8.88534 12.6344 8.62305 11.6476 8.62305H8.24756L12.3689 11.1312Z"  fill-opacity="0.6"/>
<path id="Vector_2" d="M6.07051 4.06937L5.19837 3.65625C5.19837 3.65625 4.02789 4.52511 2.71313 6.16445L3.78527 7.99724L6.07051 4.07265V4.06937Z"  fill-opacity="0.6"/>
<path id="Vector_3" d="M9.82781 7.97154C10.9143 7.97154 11.795 7.09079 11.795 6.00432C11.795 4.91786 10.9143 4.03711 9.82781 4.03711C8.74135 4.03711 7.8606 4.91786 7.8606 6.00432C7.8606 7.09079 8.74135 7.97154 9.82781 7.97154Z" />
<path id="Vector_4" d="M4.48357 4.87974C5.57003 4.87974 6.45078 3.99899 6.45078 2.91253C6.45078 1.82606 5.57003 0.945312 4.48357 0.945312C3.39711 0.945312 2.51636 1.82606 2.51636 2.91253C2.51636 3.99899 3.39711 4.87974 4.48357 4.87974Z" />
<path id="Vector_5" d="M14.2017 15.5518C13.2804 15.5518 12.3755 15.3092 11.5787 14.8469L11.4476 14.7715L11.3164 14.8469C10.5197 15.3059 9.61479 15.5518 8.69348 15.5518C7.77217 15.5518 6.86725 15.3092 6.07053 14.8469L5.93938 14.7715L5.80826 14.8469C5.01154 15.3059 4.10662 15.5518 3.18531 15.5518C2.264 15.5518 1.35908 15.3092 0.56236 14.8469L0.300049 15.2993C1.17546 15.8043 2.1722 16.0731 3.18531 16.0731C4.19843 16.0731 5.09675 15.8305 5.93938 15.3715C6.782 15.8305 7.72955 16.0731 8.69348 16.0731C9.65742 16.0731 10.605 15.8305 11.4476 15.3715C12.2902 15.8305 13.2378 16.0731 14.2017 16.0731C14.9427 16.0731 15.6738 15.9289 16.3525 15.6567L16.8214 14.8469C16.0279 15.3059 15.1197 15.5485 14.2017 15.5485V15.5518Z" />
<path id="Vector_6" d="M6.52637 11.263L7.10998 13.1286C7.25097 13.5811 7.26408 14.0598 7.15261 14.5122L8.39849 12.3516L6.52637 11.2598V11.263Z"  fill-opacity="0.6"/>
<path id="Subtract" fill-rule="evenodd" clip-rule="evenodd" d="M7.18143 13.4155C7.16301 13.3204 7.13913 13.2259 7.10973 13.1326L6.52612 11.267C6.52612 11.267 3.10644 11.267 0.663818 9.36867C1.28677 8.09653 2.0212 7.0244 2.713 6.16211L3.78514 7.99489L3.41136 8.62768H10.4376C12.4507 8.62768 13.7163 10.7982 12.7261 12.549L11.1261 15.3785C10.454 15.6801 9.73267 15.8375 8.97857 15.8375C8.22447 15.8375 7.4802 15.6736 6.79823 15.3621C6.84085 15.2769 6.88349 15.1916 6.92939 15.1064C7.03083 14.9149 7.10679 14.7129 7.15673 14.5055L8.39835 12.3523L6.52624 11.2605V11.2637L7.10985 13.1293C7.13927 13.2237 7.16312 13.3193 7.18143 13.4155Z" />
</g>
</g>
</svg>
