<svg class="sport-icon" width="26" height="31" viewBox="0 0 26 31" fill="none" xmlns="http://www.w3.org/2000/svg">
<g id="Weightlifting">
<g id="Group">
<path id="Subtract" fill-rule="evenodd" clip-rule="evenodd" d="M23.0182 4.9062C23.0182 2.60128 21.933 0.732422 20.592 0.732422H20.5855C19.2478 0.732422 18.1592 2.60128 18.1592 4.9062C18.1592 5.01767 18.1625 5.12914 18.169 5.24062C18.1793 5.46576 18.2001 5.68586 18.2304 5.8995L18.8378 4.84718H19.664C19.664 4.84718 19.3077 5.93314 18.709 7.54635C19.1542 8.48061 19.831 9.07669 20.5887 9.07669C21.8642 9.07669 22.91 7.38816 23.0084 5.24062C23.0149 5.12914 23.0182 5.01767 23.0182 4.9062Z" />
<path id="Vector" d="M12.3558 19.5938L17.4673 22.597C17.7952 22.7905 17.9951 23.1413 17.9951 23.5216V30.4036H17.0115C17.0115 30.4036 15.7559 27.0528 15.7559 24.2036C15.7559 24.2036 13.3427 23.6233 10.7559 22.1675L12.3558 19.5938Z"  fill-opacity="0.6"/>
<path id="Vector_2" d="M13.569 13.9755L18.8378 4.84766H19.6641C19.6641 4.84766 17.1657 12.4608 14.287 17.3165L13.5657 13.9755H13.569Z"  fill-opacity="0.6"/>
<path id="Subtract_2" fill-rule="evenodd" clip-rule="evenodd" d="M22.9461 0.732422H20.592H20.5855C19.2478 0.732422 18.1592 2.60128 18.1592 4.9062C18.1592 5.02095 18.1625 5.13242 18.169 5.2439C18.1796 5.46772 18.2004 5.68655 18.2307 5.89901L18.8378 4.84718H19.664C19.664 4.84718 19.3076 5.93322 18.709 7.54653C19.1538 8.48257 19.8301 9.07996 20.5887 9.07996H22.9428C24.2182 9.07996 25.2608 7.39144 25.3624 5.2439C25.369 5.13242 25.3723 5.02095 25.3723 4.9062C25.3723 2.60128 24.2871 0.732422 22.9461 0.732422Z"  fill-opacity="0.6"/>
<path id="Vector_3" d="M13.2245 11.995C14.311 11.995 15.1917 11.1142 15.1917 10.0278C15.1917 8.9413 14.311 8.06055 13.2245 8.06055C12.1381 8.06055 11.2573 8.9413 11.2573 10.0278C11.2573 11.1142 12.1381 11.995 13.2245 11.995Z" />
<path id="Vector_4" d="M11.8181 12.23L9.65089 8.47266L8.48694 10.5022C8.86071 11.3874 9.30665 12.3284 9.8378 13.2825V18.0366C7.83124 21.0235 7.41809 24.7087 7.41809 24.7087C3.84104 26.7809 1.83447 29.3973 1.83447 29.3973V30.4005L8.60173 26.5907C8.93944 26.4005 9.2214 26.1218 9.41484 25.7874L14.7493 16.512C15.3689 15.4366 14.9984 14.0595 13.9198 13.4399L11.8149 12.2267L11.8181 12.23Z" />
<path id="Vector_5" d="M5.6377 5.16912H19.8476C19.9918 5.16912 20.1098 5.05109 20.1098 4.90683C20.1098 4.76257 19.9918 4.64453 19.8476 4.64453H5.6377V5.16912Z" />
<path id="Union" fill-rule="evenodd" clip-rule="evenodd" d="M5.33941 0.732422H2.98525H2.97869C1.64098 0.732422 0.55249 2.60128 0.55249 4.9062C0.55249 5.02095 0.555779 5.13242 0.562336 5.2439C0.663976 7.39144 1.70656 9.07996 2.98197 9.07996H5.33613C6.16935 9.07996 6.90321 8.35929 7.34025 7.26078C7.60531 8.17251 7.9781 9.28653 8.49026 10.5029L9.65421 8.47341L7.75934 5.17609C7.76352 5.0871 7.7656 4.99769 7.7656 4.9062C7.7656 2.60128 6.68039 0.732422 5.33941 0.732422Z"  fill-opacity="0.6"/>
<path id="Vector_6" d="M2.98528 9.07996C4.32525 9.07996 5.41156 7.21131 5.41156 4.9062C5.41156 2.60109 4.32525 0.732422 2.98528 0.732422C1.64531 0.732422 0.559082 2.60109 0.559082 4.9062C0.559082 7.21131 1.64531 9.07996 2.98528 9.07996Z" />
</g>
</g>
</svg>
