<svg class="sport-icon" width="40" height="21" viewBox="0 0 40 21" fill="none" xmlns="http://www.w3.org/2000/svg">
<g id="Wrestling">
<g id="Group">
<path id="Vector" d="M16.5492 10.231L21.0771 18.1392H19.8115C19.8115 18.1392 16.5 15.1392 13.8574 9.96875L16.5492 10.231Z"  fill-opacity="0.6"/>
<path id="Vector_2" d="M19.195 8.3231C20.2815 8.3231 21.1622 7.44235 21.1622 6.35588C21.1622 5.26942 20.2815 4.38867 19.195 4.38867C18.1085 4.38867 17.2278 5.26942 17.2278 6.35588C17.2278 7.44235 18.1085 8.3231 19.195 8.3231Z" />
<path id="Vector_3" d="M10.536 10.125L16.7196 20.8201H15.0344C15.0344 20.8201 9.72621 15.5676 7.33276 10.6266L10.536 10.125Z"  fill-opacity="0.6"/>
<path id="Vector_4" d="M13.9 5.9564H8.5885C6.65079 5.9564 5.08031 7.52689 5.08031 9.4646V14.8515C5.08031 14.8515 2.32951 16.3302 0.0114746 19.222V20.7105L7.18849 16.5662C7.18849 16.5662 8.34916 13.3334 8.43769 10.599H15.3885C15.3885 10.599 17.1754 13.1925 18.5065 14.2744C18.7819 14.3007 21.4311 14.5531 24.0082 13.74L24.6377 12.681H19.8311L16.9426 7.70066C16.3098 6.61869 15.1524 5.95312 13.9 5.95312V5.9564Z" />
<path id="Vector_5" d="M8.44092 10.602L13.4606 7.72656L15.3884 10.602H8.44092Z"  fill-opacity="0.6"/>
<path id="Vector_6" d="M24.3066 4.65708C25.393 4.65708 26.2738 3.77633 26.2738 2.68987C26.2738 1.60341 25.393 0.722656 24.3066 0.722656C23.2201 0.722656 22.3394 1.60341 22.3394 2.68987C22.3394 3.77633 23.2201 4.65708 24.3066 4.65708Z" />
<path id="Union" fill-rule="evenodd" clip-rule="evenodd" d="M30.2955 9.64629L28.2212 6.07031L33.2015 6.5654L32.1514 10.2454L32.9354 11.8135L28.3458 14.4474C28.3458 14.4474 26.4835 18.431 23.6409 20.8211H22.1294L26.4638 13.2572C26.4638 13.2572 28.4612 11.0208 30.2955 9.64629ZM32.9354 11.8135L32.9359 11.8146L32.9392 11.8113L32.9354 11.8135Z"  fill-opacity="0.6"/>
<path id="Vector_7" d="M20.5852 10.4147V11.4967C20.5852 11.4967 23.4049 11.0901 26.3917 9.35571L28.2573 6.1262L32.0082 8.26718V14.7655C32.0082 15.5328 32.4212 16.241 33.0934 16.618L39.9655 20.6049V19.1655C39.9655 19.1655 38.0901 16.6508 34.8278 14.6967C36.9262 9.64095 34.7327 5.9721 29.8966 2.92948C28.7852 2.23112 27.313 2.62784 26.6999 3.79177L24.0442 8.41145L20.5852 10.4114V10.4147Z" />
</g>
</g>
</svg>
